<?xml version="1.0" encoding="UTF-8"?>
<svg version="1.1" xmlns="http://www.w3.org/2000/svg" width="512" height="512">
<path d="M0 0 C1.45108658 0.00273422 1.45108658 0.00273422 2.93148804 0.00552368 C17.26440977 0.05095174 31.21023917 0.55983928 45.3125 3.3125 C46.65803955 3.55395752 46.65803955 3.55395752 48.03076172 3.80029297 C107.84088904 14.62287989 165.35495829 48.68064457 202.3125 97.3125 C202.72918945 97.85277832 203.14587891 98.39305664 203.57519531 98.94970703 C211.2584873 108.9447116 218.00092968 119.40459036 224.3125 130.3125 C224.70679199 130.98974121 225.10108398 131.66698242 225.50732422 132.36474609 C238.68961173 155.2833756 247.29510918 180.85822563 252.625 206.6875 C252.77243652 207.39817627 252.91987305 208.10885254 253.07177734 208.84106445 C256.05713787 224.48358366 256.6873098 240.11919606 256.625 256 C256.62226578 257.45108658 256.62226578 257.45108658 256.61947632 258.93148804 C256.57404826 273.26440977 256.06516072 287.21023917 253.3125 301.3125 C253.15152832 302.20952637 252.99055664 303.10655273 252.82470703 304.03076172 C244.93444853 347.63561969 225.24485057 388.77240471 196.3125 422.3125 C195.67828125 423.05757813 195.0440625 423.80265625 194.390625 424.5703125 C182.57948485 438.07529833 169.82889772 450.74668743 155.3125 461.3125 C154.16255169 462.16899066 153.01281411 463.02576433 151.86328125 463.8828125 C143.67315742 469.92284209 135.16870382 475.30617614 126.3125 480.3125 C125.60528809 480.7146875 124.89807617 481.116875 124.16943359 481.53125 C101.04989063 494.54775099 75.90080247 503.281052 49.9375 508.625 C49.22698486 508.77235596 48.51646973 508.91971191 47.78442383 509.0715332 C32.14208949 512.05794017 16.50573907 512.68730954 0.625 512.625 C-0.34239105 512.62317719 -1.3097821 512.62135437 -2.30648804 512.61947632 C-16.63940977 512.57404826 -30.58523917 512.06516072 -44.6875 509.3125 C-45.58452637 509.15152832 -46.48155273 508.99055664 -47.40576172 508.82470703 C-107.21588904 498.00212011 -164.72995829 463.94435543 -201.6875 415.3125 C-202.10418945 414.77222168 -202.52087891 414.23194336 -202.95019531 413.67529297 C-210.6334873 403.6802884 -217.37592968 393.22040964 -223.6875 382.3125 C-224.08179199 381.63525879 -224.47608398 380.95801758 -224.88232422 380.26025391 C-238.06461173 357.3416244 -246.67010918 331.76677437 -252 305.9375 C-252.14743652 305.22682373 -252.29487305 304.51614746 -252.44677734 303.78393555 C-255.43213787 288.14141634 -256.0623098 272.50580394 -256 256.625 C-255.99817719 255.65760895 -255.99635437 254.6902179 -255.99447632 253.69351196 C-255.94904826 239.36059023 -255.44016072 225.41476083 -252.6875 211.3125 C-252.44604248 209.96696045 -252.44604248 209.96696045 -252.19970703 208.59423828 C-241.37712011 148.78411096 -207.31935543 91.27004171 -158.6875 54.3125 C-158.14722168 53.89581055 -157.60694336 53.47912109 -157.05029297 53.04980469 C-147.0552884 45.3665127 -136.59540964 38.62407032 -125.6875 32.3125 C-125.01025879 31.91820801 -124.33301758 31.52391602 -123.63525391 31.11767578 C-100.7166244 17.93538827 -75.14177437 9.32989082 -49.3125 4 C-48.60182373 3.85256348 -47.89114746 3.70512695 -47.15893555 3.55322266 C-31.51641634 0.56786213 -15.88080394 -0.0623098 0 0 Z " fill="#4979FE" transform="translate(255.6875,-0.3125)"/>
<path d="M0 0 C7.87638097 6.75118369 7.87638097 6.75118369 10.5162878 9.32340717 C11.42545968 10.20646627 11.42545968 10.20646627 12.35299867 11.10736495 C12.99406999 11.73429612 13.63514131 12.36122729 14.29563904 13.00715637 C14.99582391 13.68884768 15.69600879 14.37053898 16.41741139 15.0728876 C18.74727812 17.34288903 21.07384098 19.61624208 23.40014648 21.88989258 C25.076017 23.52508818 26.75190552 25.16026531 28.42781067 26.79542542 C43.18956896 41.20957725 57.88548423 55.69072874 72.55700782 70.19665717 C75.09088213 72.70193095 77.62524362 75.20671137 80.15991211 77.71118164 C80.66435811 78.20963538 81.16880411 78.70808912 81.68853635 79.22164752 C89.85204716 87.28554788 98.06005107 95.30263458 106.28586792 103.30291251 C114.75368912 111.54048782 123.1727851 119.82558144 131.54908997 128.15620726 C136.24450576 132.82337223 140.96067773 137.46570779 145.73064995 142.05683327 C150.22276342 146.3820226 154.65126938 150.76365518 159.03980827 155.19382286 C160.65153966 156.8003131 162.28450732 158.3858477 163.94038773 159.9467926 C172.18635674 167.74335742 177.69992824 173.88323726 178.10030752 185.61784905 C178.00999296 190.7877724 177.59228717 195.86556311 177 201 C176.79696013 203.07008055 176.59495808 205.14026319 176.3940649 207.21055317 C171.29947714 257.81825013 150.19191483 306.52196541 117 345 C116.36578125 345.74507813 115.7315625 346.49015625 115.078125 347.2578125 C103.26698485 360.76279833 90.51639772 373.43418743 76 384 C74.85005169 384.85649066 73.70031411 385.71326433 72.55078125 386.5703125 C64.36065742 392.61034209 55.85620382 397.99367614 47 403 C46.29278809 403.4021875 45.58557617 403.804375 44.85693359 404.21875 C16.21394894 420.34499604 -15.92496268 430.44907673 -48.5625 434.25 C-49.2519873 434.33032471 -49.94147461 434.41064941 -50.65185547 434.4934082 C-51.98906317 434.63090658 -53.32995825 434.73696547 -54.67233276 434.80810547 C-57.01092312 434.94474999 -57.01092312 434.94474999 -59.28936768 435.52763367 C-63.17180603 436.10812181 -66.31430366 436.08065915 -69.71464348 433.90078354 C-74.63754251 429.96718517 -78.93399042 425.35085369 -83.29296875 420.81640625 C-84.73221646 419.35916431 -86.17384987 417.90427509 -87.61775208 416.4516449 C-91.39917236 412.63401432 -95.14597706 408.78408036 -98.88684082 404.92675781 C-102.71350535 400.99431028 -106.5746407 397.09601358 -110.43164062 393.19335938 C-116.04040513 387.50531608 -121.64024833 381.80877317 -127.20776367 376.08032227 C-127.79828018 375.47611954 -128.38879669 374.87191681 -128.99720764 374.24940491 C-133 370.11642254 -133 370.11642254 -133 369 C-111.22 369 -89.44 369 -67 369 C-67 312.57 -67 256.14 -67 198 C-49.51 198 -32.02 198 -14 198 C-14 195.03 -14 192.06 -14 189 C-13.85988611 187.05570816 -13.68565358 185.11332896 -13.46508789 183.17651367 C-13.28974266 181.60524971 -13.28974266 181.60524971 -13.1108551 180.00224304 C-12.98274948 178.90193253 -12.85464386 177.80162201 -12.72265625 176.66796875 C-12.59185165 175.51379959 -12.46104706 174.35963043 -12.32627869 173.17048645 C-12.05039927 170.74562678 -11.77208366 168.32104316 -11.49145508 165.89672852 C-11.06191694 162.18245818 -10.64071298 158.46731176 -10.22070312 154.75195312 C-9.95100935 152.39056916 -9.68084358 150.02923903 -9.41015625 147.66796875 C-9.22103416 146.00232124 -9.22103416 146.00232124 -9.02809143 144.30302429 C-8.90804245 143.27127579 -8.78799347 142.23952728 -8.66430664 141.17651367 C-8.50775352 139.81824715 -8.50775352 139.81824715 -8.34803772 138.43254089 C-8 136 -8 136 -7 132 C-26.8 132 -46.6 132 -67 132 C-67.04125 124.595625 -67.0825 117.19125 -67.125 109.5625 C-67.14320801 107.2429126 -67.16141602 104.9233252 -67.18017578 102.53344727 C-67.18602378 100.66943594 -67.19111861 98.80542203 -67.1953125 96.94140625 C-67.20554443 95.99422729 -67.21577637 95.04704834 -67.22631836 94.07116699 C-67.22873477 84.74503731 -66.13604524 76.33332236 -60 69 C-47.21192199 56.61628809 -31.26483624 55.66445826 -14.3125 55.875 C-9.589375 55.91625 -4.86625 55.9575 0 56 C0 37.52 0 19.04 0 0 Z " fill="#0053BF" transform="translate(335,77)"/>
<path d="M0 0 C0 19.14 0 38.28 0 58 C-13.625 58.3125 -13.625 58.3125 -17.82666016 58.38793945 C-32.48719608 58.81280761 -47.32766991 61.01329227 -58.53125 71.265625 C-65.12760823 79.05494163 -65.15066794 88.96591655 -65.31640625 98.6484375 C-65.33505737 99.54667236 -65.3537085 100.44490723 -65.3729248 101.37036133 C-65.44089263 104.70514696 -65.50125112 108.04008419 -65.5625 111.375 C-65.706875 118.84125 -65.85125 126.3075 -66 134 C-46.2 134 -26.4 134 -6 134 C-8.29897388 159.28871269 -8.29897388 159.28871269 -9.2890625 167.7734375 C-9.38533936 168.61624268 -9.48161621 169.45904785 -9.58081055 170.32739258 C-9.92608809 173.3435819 -10.27575624 176.35926735 -10.625 179.375 C-11.40875 186.18125 -12.1925 192.9875 -13 200 C-30.49 200 -47.98 200 -66 200 C-66 256.43 -66 312.86 -66 371 C-88.11 371 -110.22 371 -133 371 C-133 314.57 -133 258.14 -133 200 C-142.9 200 -152.8 200 -163 200 C-171.91 199.67 -180.82 199.34 -190 199 C-190 177.55 -190 156.1 -190 134 C-171.52 134 -153.04 134 -134 134 C-134.06960937 127.59980469 -134.06960937 127.59980469 -134.140625 121.0703125 C-134.16644612 117.6143286 -134.18810254 114.15837287 -134.20700073 110.7023468 C-134.22790546 107.08374876 -134.25571409 103.46554086 -134.30175781 99.84716797 C-134.67080657 70.0507747 -131.39825797 42.8623493 -110 20 C-85.42526272 -2.76668604 -31.80256247 -15.90128123 0 0 Z " fill="#FDFEFE" transform="translate(334,75)"/>
<path d="M0 0 C0.70537903 -0.00200409 1.41075806 -0.00400818 2.13751221 -0.006073 C32.38335898 -0.02707051 32.38335898 -0.02707051 40.9375 4.25 C40.9375 23.39 40.9375 42.53 40.9375 62.25 C27.3125 62.5625 27.3125 62.5625 23.11083984 62.63793945 C8.45030392 63.06280761 -6.39016991 65.26329227 -17.59375 75.515625 C-24.19010823 83.30494163 -24.21316794 93.21591655 -24.37890625 102.8984375 C-24.39755737 103.79667236 -24.4162085 104.69490723 -24.4354248 105.62036133 C-24.50339263 108.95514696 -24.56375112 112.29008419 -24.625 115.625 C-24.769375 123.09125 -24.91375 130.5575 -25.0625 138.25 C-5.2625 138.25 14.5375 138.25 34.9375 138.25 C32.63852612 163.53871269 32.63852612 163.53871269 31.6484375 172.0234375 C31.55216064 172.86624268 31.45588379 173.70904785 31.35668945 174.57739258 C31.01141191 177.5935819 30.66174376 180.60926735 30.3125 183.625 C29.52875 190.43125 28.745 197.2375 27.9375 204.25 C10.4475 204.25 -7.0425 204.25 -25.0625 204.25 C-25.0625 260.68 -25.0625 317.11 -25.0625 375.25 C-47.1725 375.25 -69.2825 375.25 -92.0625 375.25 C-92.0625 374.92 -92.0625 374.59 -92.0625 374.25 C-73.9125 374.25 -55.7625 374.25 -37.0625 374.25 C-37.3925 252.48 -37.7225 130.71 -38.0625 5.25 C-24.5525798 1.87251995 -13.56128153 0.01862329 0 0 Z " fill="#DAE0EA" transform="translate(293.0625,70.75)"/>
<path d="M0 0 C18.7029069 -0.15533976 37.30977676 0.30130007 56 1 C56 19.15 56 37.3 56 56 C51.70696466 52.32025542 47.67610482 48.801806 43.70727539 44.83666992 C43.22832825 44.3594751 42.7493811 43.88228027 42.25592041 43.390625 C40.70067023 41.83971565 39.14903457 40.28525035 37.59765625 38.73046875 C36.50921464 37.64270175 35.42062471 36.55508315 34.33189392 35.46760559 C32.06525765 33.20243515 29.80041916 30.93548679 27.53686523 28.66723633 C24.62927813 25.75391151 21.71716913 22.84515429 18.80373478 19.93767834 C16.56211584 17.69966038 14.32286844 15.45928188 12.08434868 13.21816444 C11.0105277 12.14367502 9.93595964 11.0699317 8.86064339 9.99693871 C7.36699113 8.50580975 5.87655404 7.01154177 4.38696289 5.51635742 C3.53759659 4.66619553 2.68823029 3.81603363 1.81312561 2.94010925 C0 1 0 1 0 0 Z " fill="#0053BF" transform="translate(145,274)"/>
</svg>
