<?xml version="1.0" encoding="UTF-8"?>
<svg version="1.1" xmlns="http://www.w3.org/2000/svg" width="512" height="512">
<path d="M0 0 C0.65415894 -0.0065712 1.30831787 -0.0131424 1.9822998 -0.01991272 C4.14843879 -0.03962578 6.31450816 -0.05130999 8.48071289 -0.0612793 C9.22423067 -0.06535482 9.96774845 -0.06943035 10.73379707 -0.07362938 C14.67685797 -0.09449161 18.61988415 -0.10878701 22.56298828 -0.11816406 C26.60767084 -0.12916877 30.65179414 -0.16349809 34.69628048 -0.20333576 C37.82872937 -0.22968375 40.9610494 -0.23787233 44.09359932 -0.24144554 C45.58253272 -0.24627265 47.0714619 -0.25777391 48.56028557 -0.27648354 C64.83010584 -0.46806786 76.11413311 3.77554593 88.51586914 14.17700195 C89.22549805 13.50604492 89.22549805 13.50604492 89.94946289 12.8215332 C101.06420857 2.66009904 110.71947688 -0.12779137 125.54595947 -0.09042358 C127.52177022 -0.09722025 127.52177022 -0.09722025 129.53749633 -0.10415423 C133.18317783 -0.1163612 136.8287674 -0.11612649 140.47446465 -0.11376548 C144.41052676 -0.11335673 148.34655962 -0.12440205 152.28260803 -0.13388062 C159.99033332 -0.15047909 167.69802801 -0.15598965 175.40576968 -0.15710537 C181.67267564 -0.15805642 187.93957153 -0.16216955 194.2064743 -0.16850662 C211.98342176 -0.18611612 229.76034509 -0.19534598 247.53730133 -0.19384567 C248.49525312 -0.19376576 249.45320491 -0.19368585 250.44018555 -0.19360352 C251.87887252 -0.19348087 251.87887252 -0.19348087 253.34662387 -0.19335575 C268.88755215 -0.192543 284.42838348 -0.2116787 299.96928373 -0.23988025 C315.93551057 -0.26862445 331.90169016 -0.28241969 347.86794353 -0.2806927 C356.82817476 -0.28002931 365.78830437 -0.28549897 374.74851227 -0.3070488 C382.37798293 -0.32528084 390.00730589 -0.32959137 397.63678893 -0.31602995 C401.5268156 -0.30951039 405.41655907 -0.30934616 409.30655861 -0.32673645 C412.87340953 -0.34251759 416.43975389 -0.3395529 420.00659284 -0.32216819 C421.89597494 -0.31766931 423.78537306 -0.33271607 425.67469335 -0.34864748 C435.74533771 -0.26759038 444.4381721 1.93514515 452.51586914 8.17700195 C453.07790039 8.59594727 453.63993164 9.01489258 454.21899414 9.4465332 C462.28008721 15.80778708 466.90981282 24.33498143 469.51586914 34.17700195 C470.049291 38.7297384 470.05704057 43.22864351 470.02380371 47.80873108 C470.02842196 49.15578951 470.03478105 50.50284289 470.04271269 51.84988588 C470.05930244 55.52277945 470.05120746 59.19525354 470.03876781 62.86814797 C470.02967691 66.84026272 470.04370692 70.81230787 470.0546875 74.78440857 C470.07243391 82.55412731 470.06865024 90.3236911 470.05703694 98.0934158 C470.04798823 104.40982364 470.04678482 110.72618817 470.0511322 117.04260063 C470.05174513 117.94299078 470.05235807 118.84338092 470.05298957 119.77105562 C470.05426852 121.60040345 470.05556538 123.42975126 470.05687994 125.25909906 C470.0682742 142.39520335 470.05518982 159.53122191 470.03367847 176.66731214 C470.01580549 191.35979396 470.01891548 206.05214936 470.03735352 220.74462891 C470.05877537 237.82268953 470.06717888 254.90067512 470.05490446 271.97874731 C470.05363031 273.80090454 470.05237283 275.62306178 470.0511322 277.44521904 C470.0505151 278.341667 470.049898 279.23811496 470.0492622 280.16172801 C470.04581347 286.46851986 470.05162727 292.77526397 470.06105042 299.08204842 C470.07228626 306.77075468 470.06919695 314.45929765 470.04792744 322.14798529 C470.03743876 326.06828279 470.03325772 329.98830838 470.04652405 333.90860367 C470.05849925 337.5017823 470.05180206 341.09443859 470.03061384 344.68757027 C470.02407432 346.59339306 470.03703788 348.4992525 470.05084276 350.40503651 C469.94816531 361.71240123 466.9706315 369.68276631 459.16040039 377.9074707 C451.43930167 384.53370166 443.08596531 387.33237493 433.11026096 387.31122303 C431.98219059 387.31475138 431.98219059 387.31475138 430.83133093 387.318351 C428.29700915 387.325038 425.76273868 387.32458287 423.22840881 387.32417297 C421.39868464 387.3274718 419.56896119 387.3311974 417.73923868 387.33531445 C412.69967262 387.3453407 407.66011846 387.34905226 402.62054384 387.35170376 C397.18949843 387.35560503 391.75846248 387.36518357 386.3274231 387.37391663 C373.20470156 387.39368729 360.08197925 387.40374855 346.95924655 387.41264442 C340.78001982 387.41702681 334.60079396 387.42239379 328.42156792 387.42763329 C307.88055251 387.44464707 287.33953764 387.4591409 266.79851627 387.46638203 C261.46691449 387.46829194 256.13531271 387.47021061 250.80371094 387.47216797 C249.81015056 387.47252819 249.81015056 387.47252819 248.79651825 387.4728957 C227.3307859 387.48078498 205.86510887 387.50420843 184.39940066 387.53672391 C161.69826622 387.57104788 138.9971641 387.59073449 116.29600328 387.59402627 C103.92406186 387.59619113 91.55220173 387.60493633 79.1802845 387.63048744 C68.64275499 387.65219969 58.1053265 387.66024227 47.56777716 387.65052066 C42.19302765 387.64597737 36.81848654 387.64786405 31.44376564 387.6672821 C26.51791719 387.68492439 21.59242902 387.68390723 16.66657668 387.66838481 C14.88989088 387.66601036 13.11318008 387.67032377 11.33653248 387.68221346 C-2.1049091 387.7665537 -14.34689666 386.49792406 -25.48413086 378.17700195 C-27.03100586 377.06325195 -27.03100586 377.06325195 -28.60913086 375.92700195 C-35.19088071 369.63141514 -42.10653771 359.17220167 -42.61293203 349.79086256 C-42.6147206 348.83803153 -42.61650917 347.88520049 -42.61835194 346.90349579 C-42.62280978 345.80355333 -42.62726762 344.70361087 -42.63186055 343.57033682 C-42.63167619 342.357039 -42.63149183 341.14374118 -42.63130188 339.89367676 C-42.63497857 338.60847216 -42.63865526 337.32326756 -42.64244336 335.99911737 C-42.65246767 332.42423329 -42.65618086 328.849366 -42.65883267 325.27446985 C-42.66273457 321.4215082 -42.67231314 317.56855985 -42.68104553 313.71560669 C-42.70081548 304.40563883 -42.71087784 295.09566987 -42.71977332 285.78568625 C-42.72415625 281.40085005 -42.72952313 277.01601506 -42.73476219 272.63117981 C-42.75177669 258.05301921 -42.76626987 243.47485937 -42.77351093 228.89669037 C-42.77542082 225.11284891 -42.77734115 221.32900745 -42.77929688 217.54516602 C-42.77978062 216.60471367 -42.78026436 215.66426132 -42.78076275 214.69531041 C-42.78905929 199.46775837 -42.81438884 184.24028497 -42.84687755 169.01276726 C-42.87996579 153.376636 -42.89796138 137.74054467 -42.90115517 122.10437822 C-42.90331888 113.32628537 -42.91204681 104.54830713 -42.93761635 95.77024841 C-42.95934764 88.29256862 -42.96736193 80.81503128 -42.95764957 73.33732349 C-42.95311157 69.52427678 -42.95496148 65.71152383 -42.97441101 61.89851761 C-42.99535025 57.75753832 -42.98503571 53.61720754 -42.97187805 49.47619629 C-42.9828473 48.28074424 -42.99381654 47.0852922 -43.00511819 45.85361433 C-42.92124425 34.89831053 -39.79633274 26.08353924 -33.48413086 17.17700195 C-32.88600586 16.31075195 -32.28788086 15.44450195 -31.67163086 14.55200195 C-23.61757509 5.80759855 -11.90007023 0.09903175 0 0 Z " fill="#FEC50F" transform="translate(42.484130859375,62.822998046875)"/>
<path d="M0 0 C26.03441802 -0.07012397 52.06882186 -0.12300482 78.10331535 -0.15543652 C90.19195592 -0.17089628 102.28053776 -0.19196886 114.36914062 -0.22631836 C124.90725784 -0.25624788 135.44533252 -0.27558147 145.98349106 -0.28226548 C151.5618206 -0.2861717 157.14002845 -0.29533347 162.71831894 -0.31719017 C167.97300213 -0.33761136 173.22751394 -0.34382239 178.48223305 -0.33932304 C180.40666066 -0.34014572 182.33109424 -0.34607767 184.25548744 -0.35761642 C197.96042568 -0.43573416 208.66079883 -0.11883027 219.5625 9.1875 C224.60652593 15.00752992 228.12273826 21.37309152 228.12863445 29.15415382 C228.1318589 30.22746252 228.13508335 31.30077121 228.1384055 32.40660441 C228.1360826 34.18190612 228.1360826 34.18190612 228.13371277 35.99307251 C228.13597833 37.24701982 228.13824388 38.50096713 228.14057809 39.79291284 C228.14671055 43.28045057 228.14656079 46.76796438 228.14538372 50.25550628 C228.14518006 54.01435579 228.15069517 57.77319754 228.15544128 61.53204346 C228.16375711 68.90008011 228.16649658 76.26810877 228.16705366 83.63614972 C228.16752853 89.62618202 228.16958183 95.61621167 228.17275429 101.60624313 C228.18156462 118.58688781 228.18617325 135.56752616 228.18542381 152.54817314 C228.18538386 153.46410706 228.1853439 154.38004098 228.18530273 155.32373047 C228.18526185 156.24078252 228.18522097 157.15783457 228.18517885 158.10267608 C228.18477262 172.95649397 228.19433533 187.81028648 228.2084411 202.66409703 C228.2228085 217.91375461 228.22971103 233.16339983 228.22884732 248.41306436 C228.2285154 256.97531414 228.2312601 265.53753735 228.24202538 274.09978104 C228.25113532 281.39230679 228.25330169 288.68479391 228.24651595 295.97732289 C228.2432528 299.69687517 228.24318658 303.41635337 228.2518692 307.13589859 C228.26119438 311.17233022 228.25495254 315.20859063 228.24723816 319.24502563 C228.25238172 320.41517578 228.25752529 321.58532592 228.26282471 322.79093516 C228.21911413 333.14122528 227.21269682 341.19582918 220 349 C216.01362276 352.88305861 212.14453811 356.35496654 206.5625 357.5 C202.60073831 356.72697333 201.28287686 354.17066231 199 351 C197.79856454 348.59712909 197.87513426 347.11385812 197.87530136 344.43017769 C197.87291041 343.46172861 197.87051946 342.49327954 197.86805606 341.49548352 C197.8717048 339.88813834 197.8717048 339.88813834 197.87542725 338.24832153 C197.8740171 337.11576836 197.87260695 335.9832152 197.87115407 334.81634223 C197.86748395 330.99489951 197.87084499 327.17349349 197.87402344 323.35205078 C197.87320816 320.62249142 197.87081293 317.89293418 197.86836243 315.16337585 C197.86426779 310.03559522 197.8620327 304.90781926 197.86194643 299.78003697 C197.86174378 289.69479794 197.84928757 279.60960704 197.83233643 269.52438354 C197.82973056 267.93683312 197.82713175 266.34928267 197.8245399 264.76173222 C197.82060126 262.35538038 197.81665476 259.94902856 197.81267868 257.54267678 C197.79772402 248.46399996 197.7841052 239.38532166 197.77197266 230.30664062 C197.77030231 229.06148644 197.77030231 229.06148644 197.76859823 227.79117762 C197.75104767 214.35872945 197.74815236 200.92631143 197.74982306 187.4938537 C197.75110387 173.69848944 197.73331911 159.90323704 197.69880509 146.10791576 C197.67818964 137.60274665 197.67279154 129.09784585 197.6871334 120.59266262 C197.69561833 114.755564 197.68579365 108.91867318 197.6618239 103.08161838 C197.64856711 99.71789151 197.64598922 96.3550751 197.65994453 92.99128914 C197.67385397 89.33421882 197.65687373 85.67850253 197.63250732 82.02151489 C197.6438627 80.97225865 197.65521808 79.92300242 197.66691756 78.84195054 C197.51823809 67.30971051 192.94436396 57.31201058 185 49 C179.28841668 43.63940783 173.38851215 40.47849931 166 38 C165.19729675 37.65892212 164.39459351 37.31784424 163.56756592 36.96643066 C158.51570872 35.59791504 153.67394947 35.708173 148.46191406 35.71289062 C147.30667236 35.70605759 146.15143066 35.69922455 144.96118164 35.69218445 C142.45672801 35.67861324 139.9522468 35.66954919 137.44776154 35.66447449 C133.47907369 35.65617355 129.51054571 35.63593622 125.54193115 35.61193848 C117.11132692 35.56306109 108.68068701 35.53070967 100.25 35.5 C91.1602168 35.46684992 82.07049968 35.43072982 72.98081756 35.37586927 C68.41218889 35.34894356 63.84365663 35.33704177 59.27496338 35.32775879 C56.86852713 35.31477856 54.46209373 35.30125712 52.05566406 35.28710938 C50.44059967 35.28858223 50.44059967 35.28858223 48.79290771 35.29008484 C35.41775583 35.18104106 22.63721105 32.18448477 12.5859375 22.74609375 C7.73156188 17.40149793 4.32378083 12.11249025 1.89526367 5.30932617 C1.53913498 4.31591721 1.18300629 3.32250824 0.81608582 2.29899597 C0.5467775 1.5403273 0.27746918 0.78165863 0 0 Z " fill="#DCE0E9" transform="translate(258,91)"/>
<path d="M0 0 C3.61120488 1.69617379 5.94608538 3.70146044 8.7734375 6.54296875 C9.6809375 7.45240234 10.5884375 8.36183594 11.5234375 9.29882812 C11.99233398 9.77392822 12.46123047 10.24902832 12.94433594 10.73852539 C14.35830751 12.17059387 15.77995599 13.59465585 17.203125 15.01757812 C19.82685687 17.6580335 22.44184854 20.29585773 25 23 C25.5064717 23.4561916 26.01294341 23.9123832 26.53476274 24.38239878 C30.97958589 28.76091198 31.70558305 32.25349383 31.79313624 38.39480525 C31.77838767 39.48818727 31.7636391 40.5815693 31.7484436 41.70808411 C31.75639242 42.8830725 31.76434123 44.0580609 31.77253091 45.268655 C31.78841679 48.51767445 31.77749087 51.76531044 31.75502992 55.01424992 C31.73730796 58.52291941 31.75424393 62.03144716 31.76675415 65.54011536 C31.78571435 72.40944019 31.77254386 79.27834431 31.74822827 86.14763788 C31.72095201 94.15244942 31.72426733 102.15716134 31.72849493 110.16200753 C31.73487271 124.44996949 31.71155348 138.73773197 31.67236328 153.02563477 C31.63437722 166.87823567 31.62018281 180.73060269 31.63134766 194.58325195 C31.64347631 209.67631051 31.64308358 224.76926625 31.62037599 239.86231631 C31.6179615 241.47333729 31.61554952 243.08435827 31.61314011 244.69537926 C31.61193303 245.48797098 31.61072595 246.2805627 31.6094823 247.09717235 C31.60173733 252.67153692 31.60250613 258.24586314 31.6063118 263.82023048 C31.61056594 270.61973376 31.60003122 277.41903266 31.57108469 284.21847848 C31.55664318 287.68508776 31.54840225 291.15140014 31.55757141 294.61803436 C31.56403238 298.38267172 31.54580892 302.14641909 31.52139282 305.91096497 C31.52895147 306.99765482 31.53651012 308.08434468 31.54429781 309.20396453 C31.42043645 320.02248272 28.08659888 327.89346552 20.64453125 335.73046875 C14.14484852 341.30848303 6.08670142 345.15599123 -2.546875 345.09765625 C-3.39121094 345.09443359 -4.23554688 345.09121094 -5.10546875 345.08789062 C-5.97816406 345.07951172 -6.85085938 345.07113281 -7.75 345.0625 C-8.63816406 345.05798828 -9.52632813 345.05347656 -10.44140625 345.04882812 C-12.62767329 345.037074 -14.81380179 345.02064249 -17 345 C-17.33 344.34 -17.66 343.68 -18 343 C-16.865625 342.67 -15.73125 342.34 -14.5625 342 C-6.93922822 339.11588475 -1.0657592 333.4103879 2.34375 326.0546875 C3.76639243 321.6004618 4.12525518 317.13111338 4.13422108 312.479496 C4.13867892 311.40083086 4.14313676 310.32216572 4.14772969 309.21081376 C4.14754533 308.03669993 4.14736097 306.8625861 4.14717102 305.65289307 C4.15084771 304.39708805 4.1545244 303.14128303 4.1583125 301.84742332 C4.16829704 298.36859919 4.17204354 294.88979232 4.17470181 291.41095591 C4.17861526 287.65622639 4.18819265 283.9015104 4.19691467 280.14678955 C4.21664663 271.0842818 4.22673977 262.02177299 4.23564246 252.95924914 C4.24002951 248.68885324 4.24539512 244.41845858 4.25063133 240.14806366 C4.26763805 225.9489429 4.28213266 211.74982289 4.28938007 197.55069351 C4.29128987 193.8687566 4.29321022 190.1868197 4.29516602 186.50488281 C4.29564976 185.58978958 4.2961335 184.67469634 4.2966319 183.73187301 C4.304934 168.90475981 4.33027644 154.07772723 4.36274669 139.25064924 C4.39582813 124.02010225 4.41382969 108.78959624 4.41702431 93.55901313 C4.41918808 85.01070892 4.42791751 76.46252239 4.45348549 67.91425323 C4.47520705 60.6353426 4.48323565 53.35657827 4.47351871 46.07763889 C4.4689786 42.36595554 4.47084312 38.65457396 4.49028015 34.94293213 C4.51119908 30.91342374 4.50091223 26.88458258 4.48774719 22.8550415 C4.49871644 21.68985056 4.50968568 20.52465962 4.52098733 19.32415986 C4.46394531 12.08432571 3.21373372 6.5018668 0 0 Z " fill="#FCA016" transform="translate(481,105)"/>
<path d="M0 0 C1.39614428 -0.0013502 2.7922881 -0.00329368 4.18843079 -0.00579834 C7.10930881 -0.00873779 10.03006406 -0.00449338 12.95092773 0.00488281 C16.66128531 0.01622359 20.37135173 0.00974474 24.08169842 -0.00226212 C26.96537895 -0.00955828 29.84899279 -0.00715672 32.73267555 -0.00200653 C34.75527259 -0.00005521 36.77787241 -0.00604603 38.80046082 -0.01226807 C54.1532087 0.06468098 67.25895085 1.98737996 78.98828125 12.640625 C84.92213848 18.94594359 88.2218573 26.46118027 91.73828125 34.265625 C97.59907413 46.89013404 104.69960797 54.81481431 117.98828125 60.140625 C121.65268466 61.23994602 124.94843301 61.87084914 128.73828125 62.265625 C128.73828125 62.595625 128.73828125 62.925625 128.73828125 63.265625 C112.76070647 63.35929634 96.78322151 63.42971536 80.80543804 63.47287369 C73.38574196 63.49345044 65.96621704 63.52147674 58.54663086 63.56738281 C52.07553304 63.60740118 45.60455927 63.63309329 39.13334113 63.64197898 C35.71060653 63.64716856 32.28822661 63.65926193 28.86560631 63.68854523 C25.03348419 63.71772094 21.20208895 63.7215749 17.36987305 63.71972656 C16.2499295 63.73410767 15.12998596 63.74848877 13.97610474 63.76330566 C1.27457636 63.69732276 -9.80134184 58.89548011 -19.296875 50.45703125 C-24.33403848 45.13202986 -27.17653177 38.84010406 -30.26171875 32.265625 C-30.88857597 31.01588431 -31.5202502 29.76855035 -32.15625 28.5234375 C-32.47529297 27.89775879 -32.79433594 27.27208008 -33.12304688 26.62744141 C-33.43693359 26.01304199 -33.75082031 25.39864258 -34.07421875 24.765625 C-37.5753523 17.90247578 -37.5753523 17.90247578 -38.26171875 14.265625 C-26.29664104 2.95259512 -16.2367612 -0.05555382 0 0 Z " fill="#F63362" transform="translate(169.26171875,62.734375)"/>
<path d="M0 0 C5.95170504 0 5.95170504 0 8.47851562 2.41040039 C8.97029297 3.02906982 9.46207031 3.64773926 9.96875 4.28515625 C13.12031799 8.05257686 16.44862946 11.54194789 19.93359375 14.99609375 C20.4602211 15.51934235 20.98684845 16.04259094 21.5294342 16.58169556 C23.16343239 18.20235656 24.80004653 19.82033058 26.4375 21.4375 C28.62653711 23.60002246 30.81227784 25.76580037 32.99609375 27.93359375 C33.49910507 28.42830673 34.00211639 28.92301971 34.52037048 29.432724 C35.69918975 30.60303952 36.85251258 31.79894799 38 33 C38 33.33 38 33.66 38 34 C28.55342523 33.6366702 19.47076309 29.2111129 12.5859375 22.74609375 C6.38389772 15.91773961 2.68968295 8.78741137 0 0 Z " fill="#D6D8E2" transform="translate(258,91)"/>
<path d="M0 0 C0.66 0.33 1.32 0.66 2 1 C0.71451591 2.33929505 -0.57858155 3.67128643 -1.875 5 C-2.59429687 5.7425 -3.31359375 6.485 -4.0546875 7.25 C-6 9 -6 9 -8 9 C-6.4169423 4.7257442 -3.49431596 2.73468206 0 0 Z " fill="#F8704A" transform="translate(139,70)"/>
<path d="M0 0 C0.66 0 1.32 0 2 0 C3.2890625 1.53125 3.2890625 1.53125 4.625 3.5 C5.07101562 4.1496875 5.51703125 4.799375 5.9765625 5.46875 C6.31429688 5.9740625 6.65203125 6.479375 7 7 C5.35 6.67 3.7 6.34 2 6 C1.34 4.02 0.68 2.04 0 0 Z " fill="#F6A01C" transform="translate(255,84)"/>
</svg>
