<?xml version="1.0" encoding="UTF-8"?>
<svg version="1.1" xmlns="http://www.w3.org/2000/svg" width="512" height="512">
<path d="M0 0 C2.49348845 2.01679213 4.71333471 4.11941704 6.859375 6.50390625 C7.684375 7.37015625 8.509375 8.23640625 9.359375 9.12890625 C18.26611301 19.95228408 18.93032913 33.16824877 17.859375 46.50390625 C16.36656989 53.59473051 13.00830197 59.6251335 8.859375 65.50390625 C8.3025 66.34953125 7.745625 67.19515625 7.171875 68.06640625 C-0.5153878 76.16919677 -11.50586213 82.18876892 -22.81640625 82.6015625 C-23.68652344 82.58996094 -24.55664062 82.57835937 -25.453125 82.56640625 C-26.77763672 82.55287109 -26.77763672 82.55287109 -28.12890625 82.5390625 C-28.79277344 82.52746094 -29.45664062 82.51585937 -30.140625 82.50390625 C-32.69723404 92.08761946 -34.86972669 101.71825625 -36.828125 111.44140625 C-37.14946411 113.02103149 -37.14946411 113.02103149 -37.47729492 114.63256836 C-37.67943604 115.6510083 -37.88157715 116.66944824 -38.08984375 117.71875 C-38.26862061 118.617146 -38.44739746 119.51554199 -38.6315918 120.44116211 C-39.80624818 127.50881884 -40.31025375 134.49703587 -40.37890625 141.65625 C-40.38865479 142.5057019 -40.39840332 143.35515381 -40.40844727 144.23034668 C-40.58259234 163.34363917 -40.31711607 181.75738884 -36.140625 200.50390625 C-35.95338867 201.35839355 -35.76615234 202.21288086 -35.57324219 203.09326172 C-34.31979592 208.6363518 -32.82082628 214.07591947 -31.140625 219.50390625 C-30.90005371 220.28862305 -30.65948242 221.07333984 -30.41162109 221.88183594 C-19.85871091 255.6104299 -1.26357646 285.65353639 23.31396484 310.91162109 C24.6412779 312.27919388 25.94954186 313.66520961 27.25390625 315.0546875 C33.53225399 321.61259061 40.61623518 327.0666863 47.859375 332.50390625 C48.71257324 333.14827637 48.71257324 333.14827637 49.58300781 333.80566406 C96.54969969 369.05103249 156.26624461 384.2326535 214.40112305 376.30615234 C253.73820689 370.52645629 289.91847233 355.45654721 321.40429688 331.18676758 C332.51663918 322.71372725 332.51663918 322.71372725 339.359375 323.44140625 C344.35393169 324.20979959 347.63611456 326.69135166 350.859375 330.50390625 C352.60040319 333.36499591 353.15430199 335.54003451 353.171875 338.87890625 C353.18863281 339.60851562 353.20539063 340.338125 353.22265625 341.08984375 C352.00867869 349.15692041 345.96202361 353.39451153 339.88671875 358.00878906 C308.0547074 381.48413076 272.63126953 397.64537818 233.859375 405.50390625 C232.9317334 405.70145508 232.0040918 405.89900391 231.04833984 406.10253906 C201.58234194 412.17359781 167.35641905 412.56114057 137.859375 406.50390625 C136.84681641 406.30522949 135.83425781 406.10655273 134.79101562 405.90185547 C93.69837451 397.6845583 56.76301083 380.24373428 23.859375 354.50390625 C23.32022461 354.0847998 22.78107422 353.66569336 22.22558594 353.23388672 C5.98551195 340.4708675 -9.08524843 325.27964136 -21.140625 308.50390625 C-22.0043777 307.33402169 -22.86897969 306.16476375 -23.734375 304.99609375 C-38.87770242 284.37008195 -50.9598415 261.76093498 -59.140625 237.50390625 C-59.55368896 236.2813916 -59.55368896 236.2813916 -59.97509766 235.03417969 C-63.21318006 225.26332948 -65.74547973 215.38171888 -67.890625 205.31640625 C-68.08938232 204.39174561 -68.28813965 203.46708496 -68.49291992 202.5144043 C-71.76078254 186.43002091 -72.54893105 170.563517 -72.515625 154.19140625 C-72.51508118 153.18188904 -72.51453735 152.17237183 -72.51397705 151.13226318 C-72.45654454 127.87301698 -69.55788133 106.14351191 -63.5078125 83.6484375 C-63.27876221 82.78444336 -63.04971191 81.92044922 -62.8137207 81.03027344 C-62.36342466 79.34015249 -61.90091429 77.65324056 -61.42651367 75.96972656 C-60.14927046 71.56861176 -60.14927046 71.56861176 -61.08203125 67.26171875 C-61.61699219 66.72289062 -62.15195312 66.1840625 -62.703125 65.62890625 C-71.96755298 55.04705961 -72.84700795 43.18912626 -72.32421875 29.79003906 C-71.5094164 19.64401615 -65.54587695 10.20389611 -58.140625 3.50390625 C-57.66238281 3.02179688 -57.18414062 2.5396875 -56.69140625 2.04296875 C-41.49535562 -12.45398996 -16.42868004 -11.96175791 0 0 Z " fill="#E1E1EA" transform="translate(72.140625,102.49609375)"/>
<path d="M0 0 C1.53110413 0.00323273 1.53110413 0.00323273 3.09313965 0.00653076 C17.73579998 0.05619901 32.04738899 0.36670312 46.4375 3.3125 C47.93240967 3.60253906 47.93240967 3.60253906 49.45751953 3.8984375 C97.85898057 13.46213524 142.05309771 35.87987765 177.4375 70.3125 C178.44127686 71.27760498 178.44127686 71.27760498 179.46533203 72.26220703 C188.40241207 80.87657599 196.80456664 89.58564609 204.16357422 99.59423828 C205.46000666 101.34285682 206.79038718 103.06078803 208.12890625 104.77734375 C215.99317241 114.9920598 222.3786092 125.94975258 228.4375 137.3125 C229.10096436 138.55314209 229.10096436 138.55314209 229.77783203 139.81884766 C241.29454842 161.72199262 248.9655584 186.01309889 253.4375 210.3125 C253.59831055 211.11316895 253.75912109 211.91383789 253.92480469 212.73876953 C261.14799143 249.66638093 257.49408799 290.14130671 247.8046875 326.16796875 C247.46111206 327.46395996 247.46111206 327.46395996 247.1105957 328.78613281 C246.66029966 330.47625376 246.19778929 332.16316569 245.72338867 333.84667969 C244.44614546 338.24779449 244.44614546 338.24779449 245.37890625 342.5546875 C246.18134766 343.36292969 246.18134766 343.36292969 247 344.1875 C256.2677026 354.77308691 257.14213559 366.62821311 256.61669922 380.03076172 C255.71174117 391.55356545 248.19242448 401.51389067 239.69921875 408.8046875 C229.31358511 417.17147051 217.54322362 419.34754603 204.4375 418.3125 C190.69609347 415.56421869 181.07727503 408.68312169 172.859375 397.5 C165.61533147 386.35531765 164.4470353 372.76720731 167.15625 359.8984375 C169.13106124 354.24474402 171.99231197 349.19411822 175.4375 344.3125 C175.994375 343.466875 176.55125 342.62125 177.125 341.75 C184.8122628 333.64720948 195.80273713 327.62763733 207.11328125 327.21484375 C208.41845703 327.23224609 208.41845703 327.23224609 209.75 327.25 C210.63300781 327.25902344 211.51601563 327.26804687 212.42578125 327.27734375 C213.42158203 327.29474609 213.42158203 327.29474609 214.4375 327.3125 C216.99410904 317.72878679 219.16660169 308.09815 221.125 298.375 C221.44633911 296.79537476 221.44633911 296.79537476 221.77416992 295.18383789 C221.97631104 294.16539795 222.17845215 293.14695801 222.38671875 292.09765625 C222.65488403 290.75006226 222.65488403 290.75006226 222.9284668 289.37524414 C224.10312318 282.30758741 224.60712875 275.31937038 224.67578125 268.16015625 C224.68552979 267.31070435 224.69527832 266.46125244 224.70532227 265.58605957 C224.87946734 246.47276708 224.61399107 228.05901741 220.4375 209.3125 C220.25026367 208.4580127 220.06302734 207.60352539 219.87011719 206.72314453 C218.61667092 201.18005445 217.11770128 195.74048678 215.4375 190.3125 C215.19692871 189.5277832 214.95635742 188.74306641 214.70849609 187.93457031 C203.87452342 153.30766086 184.62291315 123.18435768 159.4375 97.3125 C158.2 96.01505859 158.2 96.01505859 156.9375 94.69140625 C116.08141426 52.59504648 57.05603181 32.36981142 -0.5625 31.3125 C-49.90788715 31.13271815 -98.23538573 48.66644842 -137.10742188 78.62963867 C-148.21976418 87.102679 -148.21976418 87.102679 -155.0625 86.375 C-160.05705669 85.60660666 -163.33923956 83.12505459 -166.5625 79.3125 C-168.27261905 76.48708592 -168.87897988 74.29468275 -168.9375 71 C-168.98003906 69.92298828 -168.98003906 69.92298828 -169.0234375 68.82421875 C-167.73877394 61.82389102 -163.26864094 57.68294575 -157.875 53.5625 C-157.21636963 53.05009766 -156.55773926 52.53769531 -155.87915039 52.00976562 C-121.69871395 25.8464658 -81.02456795 9.00170363 -38.5625 2.3125 C-36.90190552 2.04651001 -36.90190552 2.04651001 -35.20776367 1.77514648 C-23.47467495 0.0923578 -11.83846115 -0.04488084 0 0 Z " fill="#D0D0DD" transform="translate(255.5625,-0.31250000000000006)"/>
<path d="M0 0 C13.91925013 12.17480102 21.16974932 28.09671175 22.75 46.3125 C22.87774595 49.15579701 22.89702394 51.99298469 22.89526367 54.83886719 C22.89862228 55.63859955 22.9019809 56.43833191 22.90544128 57.26229858 C22.91485629 59.878007 22.91688965 62.49365075 22.91796875 65.109375 C22.92118809 66.94866969 22.92455265 68.78796413 22.92805481 70.6272583 C22.93402262 74.47351677 22.93589715 78.31975285 22.93530273 82.16601562 C22.93520129 87.06219761 22.94884558 91.958234 22.96607494 96.85438156 C22.97726695 100.6516789 22.97921974 104.44894184 22.97869301 108.24625397 C22.9798626 110.04972077 22.98422607 111.85318878 22.99202538 113.6566391 C23.08380367 137.07108541 19.42104192 156.78586806 2.75 174.3125 C-11.37979235 186.59927596 -27.71514012 192.25596652 -46.37109375 191.58984375 C-63.68261527 190.35206124 -78.624086 182.49085776 -90.49609375 169.9375 C-101.7958714 156.60846172 -106.38623702 140.91841018 -106.41113281 123.67773438 C-106.41609772 122.84249237 -106.42106262 122.00725037 -106.42617798 121.146698 C-106.44070844 118.39987339 -106.44758815 115.65310663 -106.453125 112.90625 C-106.45595238 111.96052628 -106.45877975 111.01480255 -106.46169281 110.04042053 C-106.47665246 105.03052494 -106.48590089 100.02065789 -106.49023438 95.01074219 C-106.49569841 89.87474807 -106.51969195 84.73902182 -106.54820633 79.60311127 C-106.5669768 75.62043536 -106.57204602 71.63782196 -106.57357025 67.65510559 C-106.5765675 65.76396733 -106.58449492 63.87282938 -106.59775543 61.98173523 C-106.72554434 42.34829298 -104.59894711 25.29503922 -92.25 9.3125 C-91.48236328 8.27802734 -91.48236328 8.27802734 -90.69921875 7.22265625 C-81.72528649 -4.02259385 -67.25622584 -12.06978564 -53.125 -14.40234375 C-33.44338054 -16.3544609 -15.81106315 -12.48658429 0 0 Z M-69.5625 31.0625 C-76.55014089 41.2665503 -75.70955603 53.47013388 -75.68359375 65.3046875 C-75.68816512 67.1411254 -75.6934735 68.97756159 -75.69947815 70.81399536 C-75.70837164 74.64836612 -75.70602962 78.48252819 -75.69604492 82.31689453 C-75.6845656 87.19753824 -75.7047702 92.07745727 -75.73396206 96.95800591 C-75.75242931 100.74675977 -75.75201068 104.53534337 -75.74632454 108.32413101 C-75.74617258 110.12202088 -75.75211164 111.91992323 -75.76461601 113.71776962 C-75.96432823 132.67974358 -75.96432823 132.67974358 -67 148.8125 C-59.72532154 156.15873268 -52.49588899 160.22597864 -42 160.6875 C-32.04905845 160.4288572 -24.60959774 156.82092553 -17.484375 149.9453125 C-9.92378619 141.0365068 -8.09742802 131.73714098 -8.10473633 120.33276367 C-8.10137772 119.56751877 -8.0980191 118.80227386 -8.09455872 118.01383972 C-8.08511786 115.50269921 -8.08310906 112.99162587 -8.08203125 110.48046875 C-8.07881383 108.72080967 -8.07544939 106.96115085 -8.07194519 105.20149231 C-8.06597103 101.51900615 -8.06410352 97.8365434 -8.06469727 94.15405273 C-8.06479877 89.45705366 -8.05115072 84.76020613 -8.03392506 80.06324291 C-8.02275541 76.4299095 -8.02077958 72.79661214 -8.02130699 69.16326332 C-8.02013419 67.43267609 -8.01575216 65.70208771 -8.00797462 63.97151756 C-7.94897586 49.48790006 -8.17375384 36.77031715 -18.4375 25.5625 C-25.73390758 18.68211566 -34.41138645 15.90798515 -44.2421875 16.0390625 C-55.27480115 17.04202738 -62.67560633 22.82523503 -69.5625 31.0625 Z " fill="#AA7FFF" transform="translate(239.25,167.6875)"/>
<path d="M0 0 C3.87882596 3.33759443 6.78253382 6.19347504 7.6875 11.3125 C7.78406394 13.64485909 7.82244387 15.97981249 7.82794189 18.31416321 C7.83091302 19.01909651 7.83388414 19.7240298 7.8369453 20.45032471 C7.84561661 22.81235417 7.84713921 25.17433285 7.84863281 27.53637695 C7.85326207 29.23002226 7.85828688 30.92366652 7.86367798 32.61730957 C7.87679305 37.21863524 7.88324513 41.81994633 7.88768864 46.42128778 C7.89062064 49.29650268 7.89472568 52.1717136 7.89919281 55.0469265 C7.91286503 64.04428219 7.92253319 73.04162878 7.9263947 82.03899413 C7.93087573 92.42252442 7.9484269 102.8059231 7.9773953 113.18941337 C7.99901471 121.2175652 8.00909911 129.24568 8.01043582 137.27386063 C8.01148361 142.06787723 8.01738591 146.86177006 8.03525543 151.655756 C8.05174071 156.16605979 8.0538894 160.67614683 8.04511642 165.18647003 C8.04434631 166.8396354 8.04868539 168.49281244 8.05857468 170.14594841 C8.07130774 172.40751787 8.0654106 174.66832114 8.05499268 176.92988586 C8.05719252 178.82605636 8.05719252 178.82605636 8.0594368 180.76053333 C7.57126279 185.42255602 6.30895142 189.42925174 3.1875 193.0546875 C-1.85198441 196.86054812 -6.00940152 198.13514704 -12.3125 197.3125 C-16.7560809 195.74470432 -19.85199769 193.36772997 -22.44355011 189.37067795 C-24.38257982 184.77792958 -23.87905151 179.60003751 -23.85839844 174.69775391 C-23.86873611 173.42891357 -23.87907379 172.16007324 -23.88972473 170.8527832 C-23.91752186 167.38621959 -23.92099084 163.92001322 -23.92000484 160.45335436 C-23.92313941 156.82578616 -23.94876886 153.19837758 -23.97198486 149.57089233 C-24.01250696 142.70747977 -24.03287659 135.84416213 -24.04595876 128.9806484 C-24.0618417 121.16436982 -24.10026272 113.34825248 -24.14055204 105.53206754 C-24.22289905 89.45892475 -24.27702354 73.38581603 -24.3125 57.3125 C-24.98796875 58.08335937 -25.6634375 58.85421875 -26.359375 59.6484375 C-27.26009344 60.66174574 -28.16115313 61.67475071 -29.0625 62.6875 C-29.5059375 63.19539063 -29.949375 63.70328125 -30.40625 64.2265625 C-33.66394028 67.86751046 -36.04240156 70.0519969 -40.93359375 70.61328125 C-50.51109101 70.65313214 -50.51109101 70.65313214 -54.3125 67.3125 C-58.59216626 62.43843565 -59.80823348 59.44517894 -59.70703125 53.0234375 C-58.53367194 44.96094879 -51.19158871 38.82623049 -45.88671875 33.1328125 C-43.42109583 30.43147752 -41.10520676 27.66113743 -38.8125 24.8125 C-34.93356131 20.00837275 -30.85791265 15.43267136 -26.66796875 10.8984375 C-24.5425339 8.56504136 -22.51837566 6.17555339 -20.5 3.75 C-15.02748981 -2.45895008 -7.43928591 -3.7898249 0 0 Z " fill="#9965FF" transform="translate(349.3125,161.6875)"/>
<path d="M0 0 C2.49348845 2.01679213 4.71333471 4.11941704 6.859375 6.50390625 C7.684375 7.37015625 8.509375 8.23640625 9.359375 9.12890625 C18.26611301 19.95228408 18.93032913 33.16824877 17.859375 46.50390625 C16.36656989 53.59473051 13.00830197 59.6251335 8.859375 65.50390625 C8.3025 66.34953125 7.745625 67.19515625 7.171875 68.06640625 C-0.5119635 76.16558737 -11.21144641 81.84869349 -22.4296875 82.671875 C-33.83589239 82.76724461 -43.34989229 80.58492597 -53.140625 74.50390625 C-54.48242368 73.17909236 -55.81716258 71.84703796 -57.140625 70.50390625 C-58.130625 70.17390625 -59.120625 69.84390625 -60.140625 69.50390625 C-69.62476944 59.8124581 -72.42651988 47.85977277 -72.4597168 34.86010742 C-72.29419393 23.63124978 -68.29808617 14.20425807 -60.765625 5.87890625 C-59.899375 5.09515625 -59.033125 4.31140625 -58.140625 3.50390625 C-57.66238281 3.02179688 -57.18414062 2.5396875 -56.69140625 2.04296875 C-41.49535562 -12.45398996 -16.42868004 -11.96175791 0 0 Z " fill="#AA7FFE" transform="translate(72.140625,102.49609375)"/>
<path d="M0 0 C9.48054269 9.65252532 12.29481003 21.66276473 12.31689453 34.64599609 C12.13200014 46.65500121 7.51153574 55.76326219 -0.375 64.6875 C-11.34349325 74.35022024 -21.75392937 78.42855147 -36.48828125 78.27734375 C-48.54041368 77.32550682 -59.02853657 72.04868822 -67 63 C-77.30537058 50.7522559 -79.25359304 38.60990061 -78 23 C-76.50719489 15.90917574 -73.14892697 9.87877275 -69 4 C-68.443125 3.154375 -67.88625 2.30875 -67.3125 1.4375 C-47.64229361 -19.29596079 -21.39447144 -15.22642745 0 0 Z " fill="#9965FE" transform="translate(500,340)"/>
<path d="M0 0 C4.12442495 2.55135206 7.18436938 5.45235916 9 10 C9.30078125 12.1484375 9.30078125 12.1484375 9.3125 14.375 C9.32925781 15.10460937 9.34601563 15.83421875 9.36328125 16.5859375 C8.14930369 24.65301416 2.10264861 28.89060528 -3.97265625 33.50488281 C-48.9053491 66.64166159 -103.71644959 87.12298319 -160 85 C-160.02465622 80.74585377 -160.04283899 76.49174502 -160.05493164 72.23754883 C-160.05997101 70.78929927 -160.06680253 69.34105483 -160.07543945 67.89282227 C-160.08752247 65.81525412 -160.09323211 63.73775303 -160.09765625 61.66015625 C-160.10289307 60.40855713 -160.10812988 59.15695801 -160.11352539 57.86743164 C-160 55 -160 55 -159 54 C-157.04194618 53.90327945 -155.08324724 53.81444803 -153.12353516 53.76098633 C-105.55010466 52.39591459 -60.0344046 35.64961019 -22.45507812 6.68286133 C-15.43112427 1.32717279 -9.03325813 -2.89956434 0 0 Z " fill="#D0D0DD" transform="translate(416,427)"/>
<path d="M0 0 C0.02465622 4.25414623 0.04283899 8.50825498 0.05493164 12.76245117 C0.05997101 14.21070073 0.06680253 15.65894517 0.07543945 17.10717773 C0.08752247 19.18474588 0.09323211 21.26224697 0.09765625 23.33984375 C0.10289307 24.59144287 0.10812988 25.84304199 0.11352539 27.13256836 C0 30 0 30 -1 31 C-2.95805382 31.09672055 -4.91675276 31.18555197 -6.87646484 31.23901367 C-54.44989534 32.60408541 -99.9655954 49.35038981 -137.54492188 78.31713867 C-148.65726418 86.790179 -148.65726418 86.790179 -155.5 86.0625 C-160.49455669 85.29410666 -163.77673956 82.81255459 -167 79 C-168.71011905 76.17458592 -169.31647988 73.98218275 -169.375 70.6875 C-169.41753906 69.61048828 -169.41753906 69.61048828 -169.4609375 68.51171875 C-168.17627394 61.51139102 -163.70614094 57.37044575 -158.3125 53.25 C-157.65386963 52.73759766 -156.99523926 52.22519531 -156.31665039 51.69726562 C-121.92531841 25.37253652 -81.55540943 9.1894271 -39 2 C-37.99163086 1.82428467 -37.99163086 1.82428467 -36.96289062 1.64501953 C-24.68194845 -0.42746645 -12.41339166 -0.21211106 0 0 Z " fill="#E1E1EA" transform="translate(256,0)"/>
</svg>
