<?xml version="1.0" encoding="UTF-8"?>
<svg version="1.1" xmlns="http://www.w3.org/2000/svg" width="512" height="512">
<path d="M0 0 C1.12921875 0.36222656 2.2584375 0.72445312 3.421875 1.09765625 C16.44195172 5.69206131 27.764683 12.78028035 38 22 C38.77988281 22.69738281 39.55976563 23.39476563 40.36328125 24.11328125 C56.56765434 39.42207586 69.32638613 63.85965623 70.12025452 86.41696167 C70.11803391 87.66494537 70.11581329 88.91292908 70.11352539 90.19873047 C70.11367142 90.89211014 70.11381744 91.58548981 70.1139679 92.29988098 C70.11327596 94.57234926 70.1055175 96.84473369 70.09765625 99.1171875 C70.09578951 100.70044917 70.09436682 102.28371142 70.09336853 103.86697388 C70.08956349 108.01962906 70.07975051 112.17224886 70.06866455 116.32489014 C70.05840703 120.56815106 70.05386163 124.81141773 70.04882812 129.0546875 C70.03812633 137.36980784 70.02107424 145.68489951 70 154 C71.23547577 153.99347412 71.23547577 153.99347412 72.49591064 153.98681641 C74.11683624 153.98174072 74.11683624 153.98174072 75.77050781 153.9765625 C77.37723358 153.97003662 77.37723358 153.97003662 79.01641846 153.96337891 C93.42875234 154.14027886 108.76224045 160.81279761 119.10546875 170.859375 C131.17653207 184.49843212 131.17653207 184.49843212 130.875 192.1875 C129.54098361 196.47540984 129.54098361 196.47540984 127 198 C123.625 198.5 123.625 198.5 120 198 C116.53690831 195.38156482 114.48484481 192.23775999 112.1875 188.625 C105.33643104 178.15712306 95.51465521 173.0335605 83.48308241 170.42590296 C79.48130603 169.73951076 75.54601562 169.72101368 71.49455261 169.73930359 C70.12364447 169.73356527 70.12364447 169.73356527 68.72504121 169.72771102 C65.68536809 169.71745377 62.64588643 169.72135929 59.60620117 169.7253418 C57.41747362 169.72099127 55.22874759 169.71580698 53.0400238 169.70985413 C47.11017085 169.69648888 41.18038173 169.69588277 35.25051665 169.69841743 C30.29296112 169.69948892 25.3354184 169.69459915 20.37786561 169.689812 C8.00925653 169.67809184 -4.35932115 169.67893698 -16.72793212 169.68536881 C-26.78064895 169.69021392 -36.83328525 169.68164746 -46.88598633 169.66381836 C-58.58186626 169.64314945 -70.2776901 169.63272441 -81.97358912 169.63639385 C-88.15657171 169.63820341 -94.33947101 169.63560314 -100.52243996 169.62167931 C-106.33949632 169.60906919 -112.15637121 169.61107527 -117.97342491 169.62409019 C-120.101806 169.62644867 -122.23019999 169.6237476 -124.35856628 169.61546707 C-141.01669652 169.55535808 -156.90136666 170.24491111 -169.8125 182.25 C-180.83829785 194.25410606 -182.44947868 206.90846743 -182.40405273 222.46240234 C-182.40976181 224.2291151 -182.41672815 225.99582416 -182.42485046 227.76252747 C-182.44273846 232.54155985 -182.44162159 237.32040818 -182.43590808 242.09946394 C-182.43280963 246.09778518 -182.43891603 250.0960714 -182.44494683 254.09438765 C-182.4589764 263.53170494 -182.45744407 272.96893168 -182.44604492 282.40625 C-182.43456764 292.12259995 -182.44863644 301.83867375 -182.4754414 311.55498731 C-182.49763699 319.91537613 -182.50422701 328.27567851 -182.49836498 336.63609469 C-182.49500315 341.62132865 -182.49735882 346.60638567 -182.51461601 351.5915947 C-182.53014448 356.28180236 -182.52606445 360.97160274 -182.50731087 365.66179466 C-182.50364115 367.37616717 -182.50668593 369.09057026 -182.51719666 370.80491447 C-182.59931471 385.31432415 -180.22743266 397.26723558 -169.96484375 408.16015625 C-159.62875351 417.91290454 -148.36993369 421.32307784 -134.41189575 421.26069641 C-133.48908432 421.26452196 -132.56627289 421.26834751 -131.61549747 421.27228898 C-128.5458519 421.28254752 -125.47639588 421.27864047 -122.40673828 421.2746582 C-120.19668404 421.27900863 -117.98663131 421.28419288 -115.77658081 421.29014587 C-109.78894577 421.30351143 -103.80137395 421.30411726 -97.8137269 421.30158257 C-92.80885591 421.30051122 -87.80399763 421.30540044 -82.79912937 421.310188 C-70.31398417 421.32190802 -57.82886958 421.32106293 -45.34372424 421.31463119 C-34.52025987 421.30946342 -23.69688553 421.32071647 -12.87343897 421.33972941 C-1.73908428 421.35913738 9.39523765 421.36706766 20.52961171 421.36360615 C26.77236585 421.36179575 33.01503752 421.3644054 39.25777817 421.37832069 C45.12982286 421.39092051 51.00168769 421.38893442 56.87372971 421.37590981 C59.02349407 421.37354919 61.17327119 421.37626015 63.32302094 421.38453293 C78.43528386 421.60944637 78.43528386 421.60944637 93 418 C93.72158232 417.72059224 94.44316463 417.44118448 95.18661308 417.15330982 C104.82912413 413.15260968 112.94899816 404.51543735 117 395 C119.99155943 386.30236809 120.43360428 378.20232355 120.43945312 369.078125 C120.58077552 361.72936044 120.58077552 361.72936044 122.81640625 357.83984375 C125 356 125 356 128.5 355.4375 C132.57227957 356.0919735 133.50497302 356.80819397 136 360 C136.50170898 362.65039062 136.50170898 362.65039062 136.49609375 365.65625 C136.49673828 366.76226562 136.49738281 367.86828125 136.49804688 369.0078125 C136.47806641 370.16023438 136.45808594 371.31265625 136.4375 372.5 C136.44458984 373.62148438 136.45167969 374.74296875 136.45898438 375.8984375 C136.32737635 393.43267549 130.30377162 408.40558811 118 421 C100.85738462 435.8823298 82.37327736 437.45463725 60.70898438 437.38818359 C58.47202804 437.39225481 56.23507372 437.39759977 53.99812317 437.40411377 C47.95477376 437.41772761 41.91157893 437.41251325 35.86822701 437.40297651 C29.52555061 437.3953491 23.18288691 437.40243406 16.84020996 437.40713501 C5.5105582 437.412932 -5.81901552 437.40364449 -17.14865166 437.388357 C-27.39715004 437.37495587 -37.64554643 437.37728461 -47.89404297 437.39111328 C-59.82838344 437.40720945 -71.76266211 437.41312178 -83.69701719 437.40427649 C-90.00236679 437.39961402 -96.30764632 437.39893578 -102.61299133 437.40888596 C-108.5425594 437.41759055 -114.47193602 437.41147003 -120.40148354 437.39420319 C-122.56975805 437.39025697 -124.73804885 437.39134017 -126.90631676 437.39799118 C-147.46300131 437.45520464 -165.41038901 435.06502855 -180.93798828 420.32568359 C-191.7736434 409.4458464 -198.15970942 394.8680057 -198.14044189 379.52536011 C-198.14341302 378.78155913 -198.14638414 378.03775814 -198.1494453 377.27141774 C-198.15810398 374.78363551 -198.15963815 372.29590156 -198.16113281 369.80810547 C-198.16576307 368.02228188 -198.17078801 366.23645928 -198.17617798 364.45063782 C-198.1892858 359.60117679 -198.19574402 354.7517296 -198.20018864 349.90225363 C-198.20312256 346.86971063 -198.20722802 343.83717138 -198.21169281 340.80463028 C-198.22536477 331.30857355 -198.23503236 321.81252543 -198.2388947 312.31645954 C-198.24337193 301.36982714 -198.26090557 290.42331983 -198.2898953 279.47672546 C-198.31154604 271.00603191 -198.32160083 262.53537347 -198.32293582 254.06465256 C-198.32398161 249.01007215 -198.32984094 243.95560937 -198.34775543 238.9010582 C-198.36429436 234.14203714 -198.36636346 229.38322139 -198.35761642 224.62418175 C-198.3568491 222.88400534 -198.36114824 221.14381762 -198.37107468 219.40366936 C-198.47285852 200.43783495 -194.17443423 184.3004754 -180.6640625 170.40234375 C-168.94717705 159.83653063 -153.92945223 153.82571993 -138.16015625 153.95703125 C-136.70234741 153.96633667 -136.70234741 153.96633667 -135.21508789 153.97583008 C-134.48410889 153.98380615 -133.75312988 153.99178223 -133 154 C-133.00444122 153.24404037 -133.00888245 152.48808075 -133.01345825 151.70921326 C-133.05385339 144.51769908 -133.08414395 137.3262414 -133.10362434 130.1346426 C-133.11397667 126.43907696 -133.12797541 122.74360656 -133.15087891 119.0480957 C-133.17291765 115.46892958 -133.18463253 111.88985392 -133.18975449 108.31062508 C-133.19514409 106.30865108 -133.21070459 104.30671251 -133.22659302 102.30479431 C-133.22983771 75.23728174 -125.89039976 49.09684546 -107 29 C-105.77216797 27.63681641 -105.77216797 27.63681641 -104.51953125 26.24609375 C-78.39787232 -1.49611123 -36.21963229 -11.95561456 0 0 Z M-86 30 C-86.74378906 30.58007812 -87.48757812 31.16015625 -88.25390625 31.7578125 C-105.16446506 45.81563356 -115.17822016 66.77784169 -117.79502869 88.44163513 C-118.25118671 94.13520581 -118.12014411 99.85456901 -118.09765625 105.5625 C-118.09578795 106.96354115 -118.094366 108.36458296 -118.09336853 109.765625 C-118.08957576 113.42834318 -118.07977366 117.09102083 -118.06866455 120.75372314 C-118.05838026 124.50117434 -118.05380092 128.24863236 -118.04882812 131.99609375 C-118.03868054 139.3307648 -118.01910072 146.66532498 -118 154 C-104.8 154 -91.6 154 -78 154 C-77.95101562 149.71257812 -77.90203125 145.42515625 -77.8515625 141.0078125 C-77.80694918 137.56489465 -77.76045795 134.12201341 -77.71270752 130.67913818 C-77.66299878 127.05826477 -77.61651175 123.4374189 -77.578125 119.81640625 C-77.54094499 116.32141978 -77.49450217 112.82666255 -77.44193649 109.33187485 C-77.41469263 107.36578698 -77.39676537 105.39957702 -77.37905884 103.43338013 C-77.21406656 93.29860585 -76.25231647 84.60930726 -71.5625 75.5625 C-70.96566406 74.38816406 -70.36882812 73.21382812 -69.75390625 72.00390625 C-68.29670816 69.50817055 -67.05030989 67.94998891 -65 66 C-65 65.34 -65 64.68 -65 64 C-64.42378906 63.72929687 -63.84757812 63.45859375 -63.25390625 63.1796875 C-60.98037607 61.9897289 -59.01682437 60.62522282 -56.9375 59.125 C-45.05551741 51.29325703 -32.31017672 50.07679926 -18.4609375 52.66015625 C-7.68995575 55.87475158 1.60967072 62.75532364 8 72 C11.52188749 79.03501408 14.10173303 85.60338625 14.20532227 93.4909668 C14.21522186 94.1448941 14.22512146 94.79882141 14.23532104 95.4725647 C14.26687783 97.6314127 14.29167032 99.79028271 14.31640625 101.94921875 C14.33698081 103.44709338 14.35797742 104.94496228 14.37937927 106.44282532 C14.43454809 110.3833857 14.48398021 114.32399803 14.53222656 118.26464844 C14.59131642 122.99374315 14.65751582 127.72274302 14.72252655 132.45175934 C14.82047079 139.63444825 14.90937136 146.81719827 15 154 C28.2 154 41.4 154 55 154 C55.1166631 141.92484132 55.1166631 141.92484132 55.1953125 129.84960938 C55.21907104 124.91250047 55.24693795 119.97569287 55.30175781 115.03881836 C55.34575207 111.05114542 55.3692478 107.06379633 55.37950897 103.07589912 C55.38680565 101.56710282 55.40104886 100.05832087 55.42292023 98.54966545 C55.76070331 74.2463342 46.77722202 53.56318197 30 36 C29.45988281 35.38511719 28.91976562 34.77023438 28.36328125 34.13671875 C20.16659437 25.15546234 8.39786403 18.85120375 -3 15 C-4.13050781 14.608125 -5.26101562 14.21625 -6.42578125 13.8125 C-34.39686905 5.44731486 -63.35946127 12.09447728 -86 30 Z M-55 76 C-62.49811198 86.32072688 -63.29690443 95.44963973 -63.1953125 107.90625 C-63.19329834 109.07768555 -63.19128418 110.24912109 -63.18920898 111.45605469 C-63.17879759 115.80407667 -63.15087525 120.15204254 -63.125 124.5 C-63.08375 134.235 -63.0425 143.97 -63 154 C-41.88 154 -20.76 154 1 154 C1.061875 140.201875 1.061875 140.201875 1.125 126.125 C1.14320801 123.24023926 1.16141602 120.35547852 1.18017578 117.38330078 C1.18602262 115.07063991 1.19111772 112.75797696 1.1953125 110.4453125 C1.20554443 109.26573975 1.21577637 108.08616699 1.22631836 106.87084961 C1.22888496 94.59480936 -0.08893865 83.95450049 -8.75 74.75 C-16.35850209 67.51125689 -24.02656457 65.6268573 -34.3515625 65.72265625 C-42.5487498 66.34578291 -49.57878719 69.79675405 -55 76 Z " fill="#000000" transform="translate(242,69)"/>
<path d="M0 0 C1.35698933 -0.00302471 2.71397695 -0.00691579 4.07096159 -0.01159257 C7.78053816 -0.02184013 11.49001773 -0.01969906 15.19960213 -0.01541197 C19.20788225 -0.01293884 23.21613938 -0.02196618 27.22441101 -0.02944946 C35.06956248 -0.04218213 42.9146797 -0.04399195 50.75983976 -0.0416492 C57.13825342 -0.0398643 63.5166567 -0.04161936 69.89506912 -0.04587364 C70.80376761 -0.04646883 71.7124661 -0.04706402 72.6487009 -0.04767724 C74.49487705 -0.04888903 76.3410532 -0.05010316 78.18722935 -0.05131962 C95.49071742 -0.06218961 112.79418599 -0.06003521 130.09767516 -0.05393478 C145.91651986 -0.04876592 161.73530297 -0.06002121 177.55413549 -0.07903299 C193.80970774 -0.09841942 210.06525087 -0.10666599 226.32083476 -0.10290974 C235.44198231 -0.10099895 244.56307744 -0.10347345 253.68421555 -0.11762428 C261.44903232 -0.12954929 269.21376441 -0.1309304 276.97858237 -0.11883412 C280.93743362 -0.11295334 284.89613007 -0.11182373 288.85497093 -0.12383652 C292.48458248 -0.13472198 296.11391046 -0.13156065 299.74350889 -0.11757483 C301.66658739 -0.11369231 303.58967862 -0.12445321 305.51272714 -0.13587171 C318.05409908 -0.05811806 329.52389104 2.49989416 338.76333618 11.45210266 C348.92921628 23.15883704 349.10789436 36.10099055 349.03286743 50.82319641 C349.03556859 52.70544128 349.03945617 54.58768478 349.04446411 56.46992493 C349.05032984 60.39673776 349.04189128 64.3231843 349.02310181 68.24995422 C349.00031407 73.25288052 349.01345296 78.25494812 349.03739166 83.25784302 C349.05192921 87.13921945 349.04720741 91.02039634 349.03688049 94.90177917 C349.03423513 96.74514369 349.03740471 98.58852703 349.04679871 100.43186951 C349.10442628 114.91372034 348.07914305 127.31317504 337.50161743 138.26069641 C327.24222434 148.36190503 314.00181131 148.75864543 300.4546814 148.6663208 C298.35329857 148.63928851 296.25191926 148.61198145 294.15054321 148.58442688 C291.90699383 148.57022021 289.66343112 148.55800151 287.41986084 148.54760742 C282.60994983 148.52239475 277.8003103 148.48577582 272.99054337 148.4408989 C265.37388439 148.37249356 257.75742681 148.34572146 250.14050293 148.32737732 C239.45305424 148.29934598 228.76566045 148.26735898 218.07827759 148.22065735 C217.40172237 148.21771361 216.72516715 148.21476987 216.02811025 148.21173693 C205.06508072 148.16277149 194.10259774 148.07600244 183.13990392 147.97890471 C171.8471759 147.88017063 160.55503645 147.83650199 149.26181018 147.83710587 C142.9352779 147.8352633 136.61122343 147.80761789 130.28528214 147.71754074 C124.33349489 147.63289318 118.38502996 147.61398846 112.4327507 147.64396095 C110.25871652 147.64334544 108.08452866 147.61903678 105.91108704 147.56827736 C95.88471796 147.34614535 87.75377734 147.24330723 79.90273368 154.09241593 C77.48314066 156.46093274 75.21932917 158.91541695 73.02759337 161.49546647 C70.67064879 164.22195057 68.09058724 166.68426091 65.50552368 169.19429016 C63.68902685 171.02625751 61.87516638 172.8608432 60.06411743 174.69819641 C54.60002126 180.23930591 49.14480835 185.67611347 43.22842407 190.73457336 C39.93257455 193.64739047 37.04478113 196.96855936 34.09146118 200.22163391 C30.76203566 202.84299156 28.73095517 203.38328591 24.50161743 203.26069641 C21.81314087 201.46846008 21.81314087 201.46846008 19.50161743 198.26069641 C18.80952559 194.44681771 18.91993316 190.69997795 19.01333618 186.83491516 C19.02041092 185.73218765 19.02748566 184.62946014 19.03477478 183.49331665 C19.06272255 179.97758124 19.12546578 176.46344898 19.18911743 172.94819641 C19.21419962 170.56215173 19.23701292 168.17608204 19.25747681 165.78999329 C19.31255051 159.94634904 19.39618198 154.10363726 19.50161743 148.26069641 C18.03522827 148.28426208 18.03522827 148.28426208 16.53921509 148.30830383 C12.8677514 148.36313031 9.19632292 148.39723546 5.52456665 148.42549133 C3.94377532 148.44045912 2.36302465 148.46084078 0.78237915 148.48701477 C-13.18152916 148.7122391 -24.48566173 147.54498808 -35.24838257 137.76069641 C-35.99088257 136.93569641 -36.73338257 136.11069641 -37.49838257 135.26069641 C-38.17900757 134.51819641 -38.85963257 133.77569641 -39.56088257 133.01069641 C-45.0440263 125.22816983 -46.64937061 117.61445 -46.64364624 108.2167511 C-46.64700485 107.42093124 -46.65036346 106.62511139 -46.65382385 105.80517578 C-46.66330218 103.18095832 -46.66527556 100.55680491 -46.66635132 97.93257141 C-46.66956664 96.10039748 -46.67293092 94.26822381 -46.67643738 92.43605042 C-46.68242127 88.59618027 -46.6842781 84.75633261 -46.6836853 80.91645813 C-46.68358386 76.01304102 -46.69722131 71.10976928 -46.71445751 66.20638657 C-46.7256164 62.42125292 -46.7276033 58.63615396 -46.72707558 54.85100555 C-46.7282504 53.04423269 -46.73264404 51.23745878 -46.74040794 49.43070221 C-46.75028425 46.89444018 -46.74729967 44.35848763 -46.74130249 41.82221985 C-46.746922 41.08632126 -46.7525415 40.35042267 -46.7583313 39.59222412 C-46.68898473 27.96106415 -43.2183325 18.90996694 -35.18588257 10.44819641 C-24.93962244 0.72695127 -13.62416596 -0.04131098 0 0 Z M-26.49838257 23.26069641 C-30.81667375 29.40011997 -31.64786804 34.5526462 -31.67538452 41.89985657 C-31.68195572 42.66466339 -31.68852692 43.42947021 -31.69529724 44.217453 C-31.71498202 46.74488941 -31.72668413 49.27226643 -31.73666382 51.79975891 C-31.74073935 52.6662141 -31.74481487 53.5326693 -31.7490139 54.42538071 C-31.76985745 59.01452646 -31.7841647 63.6036425 -31.79354858 68.19282532 C-31.80458932 72.91360307 -31.83896699 77.63390641 -31.87872028 82.35451698 C-31.90497337 86.00072556 -31.91324826 89.64682276 -31.91683006 93.29311752 C-31.92167621 95.03210517 -31.93323341 96.77108851 -31.95186806 98.50998306 C-32.34988957 113.30770733 -32.34988957 113.30770733 -25.83598328 126.15196228 C-19.17173206 132.64256954 -11.30651234 133.69331394 -2.41635132 133.63179016 C-0.49642748 133.64915265 1.42349436 133.6667372 3.34341431 133.68452454 C6.34336783 133.69464034 9.34320018 133.69818 12.34317017 133.69648743 C15.25702748 133.70004409 18.16995603 133.72731182 21.08364868 133.75679016 C21.9836409 133.74860764 22.88363312 133.74042511 23.81089783 133.73199463 C29.86542742 133.80477534 29.86542742 133.80477534 32.55825806 135.73457336 C33.97918096 139.53951366 33.98237414 143.14906398 34.01333618 147.18257141 C34.03128738 148.04255737 34.04923859 148.90254333 34.06773376 149.78858948 C34.12181781 152.52924225 34.15572606 155.26972106 34.18911743 158.01069641 C34.22229222 159.87139769 34.25678204 161.73207602 34.29263306 163.59272766 C34.37754312 168.14859169 34.44436327 172.70440429 34.50161743 177.26069641 C38.25442605 174.09084835 41.96181998 170.9315226 45.40396118 167.42085266 C46.39879517 166.41441711 46.39879517 166.41441711 47.41372681 165.38764954 C48.76011864 164.01529065 50.10647302 162.64289503 51.45278931 161.27046204 C55.35688929 157.32092151 59.36332757 153.5914603 63.57119751 149.96846008 C66.64766527 147.24683469 69.50756468 144.32273619 72.37661743 141.38569641 C79.30475751 134.3000986 79.30475751 134.3000986 84.37424469 134.13320446 C86.10227848 134.12681114 87.8303378 134.12602563 89.55838013 134.12939453 C90.50858457 134.12727882 91.45878901 134.1251631 92.43778753 134.12298328 C95.64201826 134.11696157 98.84620984 134.11798498 102.05044556 134.11885071 C104.33990547 134.11582056 106.62936478 134.11229951 108.91882324 134.10832214 C113.86030647 134.10042019 118.80178244 134.09528329 123.74327087 134.09203148 C131.55934874 134.08613035 139.37538084 134.06959742 147.19143677 134.0506897 C149.86576078 134.04435183 152.5400848 134.03802403 155.21440887 134.03171253 C155.88283515 134.03012877 156.55126144 134.02854501 157.23994306 134.02691325 C164.85288085 134.00896821 172.46582174 133.99274759 180.07876587 133.97773743 C180.77481562 133.97636156 181.47086537 133.97498568 182.18800753 133.97356812 C193.45227824 133.95166692 204.71653773 133.94088934 215.98082596 133.93336668 C227.55005886 133.92528441 239.11918136 133.90169246 250.68836164 133.86541301 C257.18215374 133.84565279 263.67577736 133.83324763 270.16960144 133.8382473 C276.28292524 133.84289634 282.39593008 133.82907368 288.50918961 133.8012352 C290.74966002 133.794327 292.99016343 133.79419282 295.23063278 133.80143547 C298.29712764 133.81034484 301.36257546 133.79459532 304.4289856 133.77294922 C305.74896947 133.78561302 305.74896947 133.78561302 307.09561968 133.79853266 C314.37306702 133.70399917 321.15855404 131.90728826 326.93911743 127.33100891 C327.45474243 126.68905579 327.97036743 126.04710266 328.50161743 125.38569641 C329.03786743 124.74889954 329.57411743 124.11210266 330.12661743 123.45600891 C333.36049004 118.2928373 333.79953154 113.15293685 333.79214478 107.19502258 C333.798862 106.40881027 333.80557922 105.62259796 333.8125 104.81256104 C333.83142046 102.22619723 333.83540125 99.64009377 333.83755493 97.05366516 C333.84398729 95.24533992 333.85071598 93.43701571 333.85772705 91.62869263 C333.86968515 87.84185881 333.87340942 84.05511612 333.8722229 80.26826477 C333.87201986 75.4330748 333.89931261 70.59847358 333.93376732 65.76342297 C333.95608487 62.02888341 333.96005895 58.29448442 333.95900345 54.55988503 C333.96135246 52.7782164 333.97013625 50.99654349 333.98566818 49.21494102 C334.39562277 34.79740805 334.39562277 34.79740805 327.83935547 22.43493652 C320.1859979 14.96715011 311.30446226 14.82525787 301.17922974 14.87974548 C299.82921327 14.87628514 298.47919964 14.87151805 297.12919188 14.86556375 C293.43431942 14.85307569 289.73968034 14.85921403 286.0448072 14.86852241 C282.05428495 14.8753216 278.0638023 14.86482736 274.07328796 14.85658264 C266.26174002 14.84325239 258.45027862 14.84611989 250.63872731 14.85482056 C244.28934147 14.86159949 237.93997985 14.86251293 231.59059143 14.85924911 C230.68644201 14.85878942 229.78229258 14.85832972 228.85074469 14.85785609 C227.01390381 14.8568969 225.17706293 14.85592426 223.34022206 14.85493831 C206.1217038 14.84638649 188.90323348 14.85621529 171.68472308 14.87233941 C156.91484224 14.8857424 142.14503215 14.88341425 127.37515259 14.86958313 C110.21766956 14.85352365 93.06022854 14.84721045 75.90273905 14.85641992 C74.07270718 14.85737555 72.24267531 14.85831867 70.41264343 14.85924911 C69.06207574 14.85994335 69.06207574 14.85994335 67.68422386 14.86065162 C61.34347316 14.8632404 55.00274913 14.85887292 48.66200256 14.85181046 C40.93330148 14.84339118 33.20469178 14.8456846 25.47600114 14.86165269 C21.53373458 14.86952964 17.59162032 14.87263686 13.64935493 14.86270523 C10.0383571 14.85374583 6.42765233 14.85871145 2.81668097 14.87463789 C0.89631352 14.87956014 -1.02407438 14.86980029 -2.94442034 14.8594662 C-12.51722482 14.92458456 -19.45841211 16.22072595 -26.49838257 23.26069641 Z " fill="#000000" transform="translate(163.49838256835938,271.7393035888672)"/>
<path d="M0 0 C0.5986084 0.31936523 1.1972168 0.63873047 1.81396484 0.96777344 C41.67863801 22.37235402 73.13496311 57.06070156 92 98 C92.53109375 99.134375 93.0621875 100.26875 93.609375 101.4375 C96.61249539 108.12486088 99.06868596 114.90107466 101.3125 121.875 C101.69462646 123.05219604 101.69462646 123.05219604 102.08447266 124.25317383 C102.32085449 125.01267334 102.55723633 125.77217285 102.80078125 126.5546875 C103.11269409 127.55218018 103.11269409 127.55218018 103.4309082 128.56982422 C104.23928848 132.02182648 104.59777808 135.47772807 105 139 C106.28165039 138.98428955 107.56330078 138.9685791 108.88378906 138.95239258 C113.63974725 138.89808444 118.39567802 138.86364658 123.15185547 138.83520508 C125.21017059 138.8201205 127.26845358 138.79965013 129.32666016 138.77368164 C132.28556244 138.73728415 135.24403967 138.72027034 138.203125 138.70703125 C139.58301605 138.68380547 139.58301605 138.68380547 140.99078369 138.66011047 C147.3483943 138.65843652 147.3483943 138.65843652 150.55371094 140.33862305 C152.72773085 142.83595686 152.93448787 144.72439328 153 148 C150.7087518 152.6307332 147.27761674 156.29191405 143.875 160.125 C139.92051783 164.62786192 136.01555104 169.14880516 132.25 173.8125 C128.72969059 178.16149539 125.03938752 182.31233522 121.26953125 186.4453125 C118.06861502 190.04840925 115.05390977 193.79238232 112.04296875 197.5546875 C106.77488977 203.86026578 106.77488977 203.86026578 102.1875 204.6875 C97.72290112 204.42390745 95.73044963 202.50111228 92.83984375 199.25 C92.23269531 198.5075 91.62554687 197.765 91 197 C90.30003906 196.154375 89.60007812 195.30875 88.87890625 194.4375 C87.35097224 192.57326163 85.83168594 190.70190812 84.3203125 188.82421875 C82.11671594 186.14206334 79.83956175 183.56373579 77.5 181 C73.58720883 176.70679858 69.91845843 172.25630493 66.26953125 167.73828125 C63.98269495 164.97912076 61.60794024 162.32978092 59.1875 159.6875 C51 150.59665061 51 150.59665061 51 145.3125 C52.14209665 141.52930486 52.59730399 140.83861974 56 139 C58.69199145 138.74355859 61.14305409 138.64953248 63.828125 138.70703125 C64.95163361 138.71339851 64.95163361 138.71339851 66.09783936 138.71989441 C68.48226375 138.73664254 70.86583253 138.77428603 73.25 138.8125 C74.86977943 138.82755191 76.48957215 138.84123943 78.109375 138.85351562 C82.07324466 138.8865332 86.03647743 138.93828754 90 139 C82.42789242 115.90521393 82.42789242 115.90521393 72 94 C71.5359375 93.07574219 71.071875 92.15148437 70.59375 91.19921875 C55.17900421 60.95226117 29.43442888 36.80816035 1 19 C0.10087891 18.43200684 0.10087891 18.43200684 -0.81640625 17.85253906 C-44.01552935 -9.04194741 -97.72921244 -15.01716696 -146.75 -3.75 C-181.39972686 4.72439989 -211.35545861 22.50684619 -237 47 C-237.93714844 47.88429688 -238.87429687 48.76859375 -239.83984375 49.6796875 C-246.64876209 56.26896331 -252.50420208 63.31414728 -258 71 C-258.61657471 71.85803223 -258.61657471 71.85803223 -259.24560547 72.73339844 C-281.19761436 103.60850036 -293.53747221 140.08604407 -295.2578125 177.92578125 C-295.29156982 178.66449463 -295.32532715 179.40320801 -295.36010742 180.16430664 C-295.43167866 182.09311768 -295.46555741 184.02322811 -295.49609375 185.953125 C-296.10288989 189.62212493 -297.03431116 190.81419714 -300 193 C-303.84395926 193.54913704 -305.99082021 193.72675336 -309.19140625 191.421875 C-315.32013748 183.21493469 -310.32517375 163.6883223 -308.96875 154.12109375 C-301.96874254 108.29563172 -280.69690338 69.33816699 -249 36 C-248.08347656 35.02160156 -248.08347656 35.02160156 -247.1484375 34.0234375 C-242.1760193 28.86249159 -236.63519172 24.41352735 -231 20 C-230.46407227 19.57702637 -229.92814453 19.15405273 -229.37597656 18.71826172 C-164.36195827 -32.1860902 -72.37498813 -39.12682447 0 0 Z M76 154 C77.81070232 157.62140464 79.34928122 159.65787249 82.0625 162.5625 C87.51089414 168.50221471 92.60249322 174.70971772 97.60546875 181.02734375 C98.69551131 182.3859012 99.84063132 183.70010178 101 185 C101.66 185 102.32 185 103 185 C104.3327188 183.53309441 105.58913869 181.99677499 106.8125 180.4375 C111.24132463 174.8852662 115.8540707 169.52719051 120.56958008 164.21655273 C121.10091553 163.61141846 121.63225098 163.00628418 122.1796875 162.3828125 C122.88714111 161.58447998 122.88714111 161.58447998 123.60888672 160.77001953 C125.27098428 158.65520603 126.61611119 156.30648135 128 154 C110.84 154 93.68 154 76 154 Z " fill="#000000" transform="translate(311,31)"/>
<path d="M0 0 C3.90518652 4.43122762 3.34937033 9.24665109 3.1875 14.8125 C3.16719727 16.13797852 3.16719727 16.13797852 3.14648438 17.49023438 C3.11129217 19.66042023 3.05748985 21.83029033 3 24 C4.07378906 23.3503125 5.14757812 22.700625 6.25390625 22.03125 C7.68963577 21.18670322 9.12586023 20.34299744 10.5625 19.5 C11.26697266 19.07074219 11.97144531 18.64148438 12.69726562 18.19921875 C17.27906127 15.53882128 20.55433165 14.28614834 26 15 C28.5 17.0625 28.5 17.0625 30 20 C30.3125 23.4375 30.3125 23.4375 29 27 C26.24862861 29.45345219 23.2088501 31.20697104 20 33 C19.31292969 33.41636719 18.62585938 33.83273437 17.91796875 34.26171875 C13.35416667 37 13.35416667 37 11 37 C11 37.66 11 38.32 11 39 C11.69738281 39.25910156 12.39476562 39.51820313 13.11328125 39.78515625 C16.29385479 41.12366555 19.19975951 42.71166233 22.1875 44.4375 C23.23292969 45.03433594 24.27835937 45.63117188 25.35546875 46.24609375 C28 48 28 48 30 51 C29.81989972 54.36187193 29.58112046 56.99918142 27.875 59.9375 C24.81862536 61.66944563 22.47386714 61.30886531 19 61 C16.01356745 59.77690091 13.31450199 58.17688319 10.5625 56.5 C9.83095703 56.07074219 9.09941406 55.64148438 8.34570312 55.19921875 C6.55578437 54.14632537 4.77673146 53.07499718 3 52 C3.05220703 53.97033203 3.05220703 53.97033203 3.10546875 55.98046875 C3.13361466 57.71613301 3.16091396 59.45181115 3.1875 61.1875 C3.21263672 62.05181641 3.23777344 62.91613281 3.26367188 63.80664062 C3.3197835 68.68835222 3.25490183 72.067322 0 76 C-2.84083641 77.42041821 -4.85477278 77.31452272 -8 77 C-10.1484375 75.65234375 -10.1484375 75.65234375 -12 73 C-12.64053427 69.42463347 -12.69689107 65.8758912 -12.75 62.25 C-12.77964844 61.26644531 -12.80929687 60.28289062 -12.83984375 59.26953125 C-12.91042411 56.84627224 -12.96317701 54.42396846 -13 52 C-14.07378906 52.6496875 -15.14757812 53.299375 -16.25390625 53.96875 C-17.68963577 54.81329678 -19.12586023 55.65700256 -20.5625 56.5 C-21.26697266 56.92925781 -21.97144531 57.35851562 -22.69726562 57.80078125 C-27.30073995 60.47376634 -30.52967293 61.62241395 -36 61 C-38.71983633 59.3680982 -38.96240047 58.13593678 -39.8125 55.0625 C-40.02331856 51.61913014 -39.95324563 50.77783482 -38 48 C-35.62054476 46.20456199 -33.0828994 44.73214975 -30.5 43.25 C-29.46552734 42.63318359 -29.46552734 42.63318359 -28.41015625 42.00390625 C-23.29054194 39 -23.29054194 39 -21 39 C-21 38.34 -21 37.68 -21 37 C-22.04607422 36.60941406 -22.04607422 36.60941406 -23.11328125 36.2109375 C-26.2823023 34.8815782 -29.20068478 33.32433089 -32.1875 31.625 C-33.23292969 31.03976562 -34.27835937 30.45453125 -35.35546875 29.8515625 C-38.01374666 27.9903753 -39.02517294 27.0455777 -40 24 C-39.86003746 20.57091775 -39.63112109 18.70124565 -37.3125 16.125 C-34.20456426 14.61303126 -32.46198414 14.63979356 -29 15 C-26.0589938 16.25593799 -23.36153449 17.85214108 -20.625 19.5 C-19.88894531 19.92925781 -19.15289062 20.35851562 -18.39453125 20.80078125 C-16.58955456 21.85563776 -14.79381282 22.92626881 -13 24 C-12.98541748 23.37955811 -12.97083496 22.75911621 -12.95581055 22.11987305 C-12.88133412 19.30845367 -12.78467436 16.49822251 -12.6875 13.6875 C-12.66494141 12.71103516 -12.64238281 11.73457031 -12.61914062 10.72851562 C-12.58369141 9.79072266 -12.54824219 8.85292969 -12.51171875 7.88671875 C-12.48553467 7.02264404 -12.45935059 6.15856934 -12.43237305 5.26831055 C-11.91599309 2.55928389 -11.13770578 1.68690376 -9 0 C-5.78176644 -1.60911678 -3.4113678 -0.83787981 0 0 Z " fill="#000000" transform="translate(413,308)"/>
<path d="M0 0 C3.90518652 4.43122762 3.34937033 9.24665109 3.1875 14.8125 C3.16719727 16.13797852 3.16719727 16.13797852 3.14648438 17.49023438 C3.11129217 19.66042023 3.05748985 21.83029033 3 24 C4.07378906 23.3503125 5.14757812 22.700625 6.25390625 22.03125 C7.68963577 21.18670322 9.12586023 20.34299744 10.5625 19.5 C11.26697266 19.07074219 11.97144531 18.64148438 12.69726562 18.19921875 C17.27906127 15.53882128 20.55433165 14.28614834 26 15 C28.5 17.0625 28.5 17.0625 30 20 C30.3125 23.4375 30.3125 23.4375 29 27 C26.24862861 29.45345219 23.2088501 31.20697104 20 33 C19.31292969 33.41636719 18.62585938 33.83273437 17.91796875 34.26171875 C13.35416667 37 13.35416667 37 11 37 C11 37.66 11 38.32 11 39 C11.69738281 39.25910156 12.39476562 39.51820313 13.11328125 39.78515625 C16.29385479 41.12366555 19.19975951 42.71166233 22.1875 44.4375 C23.23292969 45.03433594 24.27835937 45.63117188 25.35546875 46.24609375 C28 48 28 48 30 51 C29.81989972 54.36187193 29.58112046 56.99918142 27.875 59.9375 C24.81862536 61.66944563 22.47386714 61.30886531 19 61 C16.01356745 59.77690091 13.31450199 58.17688319 10.5625 56.5 C9.83095703 56.07074219 9.09941406 55.64148438 8.34570312 55.19921875 C6.55578437 54.14632537 4.77673146 53.07499718 3 52 C3.05220703 53.97033203 3.05220703 53.97033203 3.10546875 55.98046875 C3.13361466 57.71613301 3.16091396 59.45181115 3.1875 61.1875 C3.21263672 62.05181641 3.23777344 62.91613281 3.26367188 63.80664062 C3.3197835 68.68835222 3.25490183 72.067322 0 76 C-2.84083641 77.42041821 -4.85477278 77.31452272 -8 77 C-10.1484375 75.65234375 -10.1484375 75.65234375 -12 73 C-12.64053427 69.42463347 -12.69689107 65.8758912 -12.75 62.25 C-12.77964844 61.26644531 -12.80929688 60.28289062 -12.83984375 59.26953125 C-12.91042411 56.84627224 -12.96317701 54.42396846 -13 52 C-14.07378906 52.6496875 -15.14757812 53.299375 -16.25390625 53.96875 C-17.68963577 54.81329678 -19.12586023 55.65700256 -20.5625 56.5 C-21.26697266 56.92925781 -21.97144531 57.35851562 -22.69726562 57.80078125 C-27.30073995 60.47376634 -30.52967293 61.62241395 -36 61 C-38.71983633 59.3680982 -38.96240047 58.13593678 -39.8125 55.0625 C-40.02331856 51.61913014 -39.95324563 50.77783482 -38 48 C-35.62054476 46.20456199 -33.0828994 44.73214975 -30.5 43.25 C-29.46552734 42.63318359 -29.46552734 42.63318359 -28.41015625 42.00390625 C-23.29054194 39 -23.29054194 39 -21 39 C-21 38.34 -21 37.68 -21 37 C-22.04607422 36.60941406 -22.04607422 36.60941406 -23.11328125 36.2109375 C-26.2823023 34.8815782 -29.20068478 33.32433089 -32.1875 31.625 C-33.23292969 31.03976562 -34.27835938 30.45453125 -35.35546875 29.8515625 C-38.01374666 27.9903753 -39.02517294 27.0455777 -40 24 C-39.86003746 20.57091775 -39.63112109 18.70124565 -37.3125 16.125 C-34.20456426 14.61303126 -32.46198414 14.63979356 -29 15 C-26.0589938 16.25593799 -23.36153449 17.85214108 -20.625 19.5 C-19.88894531 19.92925781 -19.15289062 20.35851562 -18.39453125 20.80078125 C-16.58955456 21.85563776 -14.79381282 22.92626881 -13 24 C-12.98541748 23.37955811 -12.97083496 22.75911621 -12.95581055 22.11987305 C-12.88133412 19.30845367 -12.78467436 16.49822251 -12.6875 13.6875 C-12.66494141 12.71103516 -12.64238281 11.73457031 -12.61914062 10.72851562 C-12.58369141 9.79072266 -12.54824219 8.85292969 -12.51171875 7.88671875 C-12.48553467 7.02264404 -12.45935059 6.15856934 -12.43237305 5.26831055 C-11.91599309 2.55928389 -11.13770578 1.68690376 -9 0 C-5.78176644 -1.60911678 -3.4113678 -0.83787981 0 0 Z " fill="#000000" transform="translate(226,308)"/>
<path d="M0 0 C3.3363959 0.98856175 4.35115711 1.32984395 6.375 4 C6.80737305 6.26831055 6.80737305 6.26831055 6.88671875 8.88671875 C6.92216797 9.82451172 6.95761719 10.76230469 6.99414062 11.72851562 C7.02797852 13.19321289 7.02797852 13.19321289 7.0625 14.6875 C7.09666016 15.67556641 7.13082031 16.66363281 7.16601562 17.68164062 C7.24850538 20.12098053 7.31765068 22.55996063 7.375 25 C8.46039063 24.3503125 9.54578125 23.700625 10.6640625 23.03125 C12.10897737 22.18681923 13.55431224 21.34310687 15 20.5 C15.71285156 20.07074219 16.42570312 19.64148438 17.16015625 19.19921875 C21.36303261 16.77003333 24.37539838 15.27833131 29.375 16 C31.75 17.5625 31.75 17.5625 33.375 20 C34 23.4375 34 23.4375 33.375 27 C31.34317726 29.1922298 29.84361377 30.4317042 27.375 32 C26.53195312 32.54140625 25.68890625 33.0828125 24.8203125 33.640625 C17.79234813 38 17.79234813 38 15.375 38 C17.96313093 40.94759356 20.97063813 42.59756248 24.375 44.5 C31.38632533 48.41809357 31.38632533 48.41809357 33.375 51 C33.87073337 54.89504791 33.95516848 57.09493717 31.8125 60.4375 C28.4037343 62.62260622 26.39525687 62.39630581 22.375 62 C19.53927952 60.77938135 17.01751479 59.18625108 14.4375 57.5 C13.75365234 57.07074219 13.06980469 56.64148438 12.36523438 56.19921875 C10.69297211 55.146746 9.03269918 54.07526433 7.375 53 C7.37089111 53.61520508 7.36678223 54.23041016 7.36254883 54.86425781 C7.32958704 57.66047231 7.25894424 60.45451504 7.1875 63.25 C7.18169922 64.21808594 7.17589844 65.18617188 7.16992188 66.18359375 C6.94777855 73.34154533 6.94777855 73.34154533 4.05078125 76.671875 C0.36482286 78.50140179 -1.72186 78.15648592 -5.625 77 C-8.38010038 74.12766976 -8.9936163 72.16804748 -8.91796875 68.234375 C-8.90830078 67.34492188 -8.89863281 66.45546875 -8.88867188 65.5390625 C-8.86353516 64.61867188 -8.83839844 63.69828125 -8.8125 62.75 C-8.79219727 61.34621094 -8.79219727 61.34621094 -8.77148438 59.9140625 C-8.73619954 57.60878673 -8.68690281 55.3046894 -8.625 53 C-9.69878906 53.6496875 -10.77257812 54.299375 -11.87890625 54.96875 C-13.31463577 55.81329678 -14.75086023 56.65700256 -16.1875 57.5 C-16.89197266 57.92925781 -17.59644531 58.35851562 -18.32226562 58.80078125 C-22.91592314 61.46806626 -26.16641939 62.66867612 -31.625 62 C-34.0625 60.375 -34.0625 60.375 -35.625 58 C-36.1875 55.0625 -36.1875 55.0625 -35.625 52 C-32.13869148 47.99720133 -28.33036611 45.3418093 -23.8125 42.6875 C-23.21501953 42.32849609 -22.61753906 41.96949219 -22.00195312 41.59960938 C-20.54686044 40.72655376 -19.08647271 39.86233309 -17.625 39 C-18.09921387 38.70754395 -18.57342773 38.41508789 -19.06201172 38.11376953 C-21.2097717 36.78701067 -23.35490324 35.45606004 -25.5 34.125 C-26.24636719 33.66480469 -26.99273437 33.20460938 -27.76171875 32.73046875 C-28.47714844 32.28574219 -29.19257813 31.84101563 -29.9296875 31.3828125 C-30.58952637 30.97434082 -31.24936523 30.56586914 -31.92919922 30.14501953 C-33.625 29 -33.625 29 -35.625 27 C-36.05334085 23.14493238 -36.18397202 20.87199635 -34.0625 17.5625 C-30.6537343 15.37739378 -28.64525687 15.60369419 -24.625 16 C-21.78927952 17.22061865 -19.26751479 18.81374892 -16.6875 20.5 C-16.00365234 20.92925781 -15.31980469 21.35851562 -14.61523438 21.80078125 C-12.94297211 22.853254 -11.28269918 23.92473567 -9.625 25 C-9.61883667 24.13048706 -9.61883667 24.13048706 -9.61254883 23.2434082 C-9.57950723 20.59875891 -9.50885736 17.95638161 -9.4375 15.3125 C-9.43169922 14.40048828 -9.42589844 13.48847656 -9.41992188 12.54882812 C-9.26924078 7.9446834 -9.10407604 5.6481617 -6.30078125 1.85546875 C-3.625 0 -3.625 0 0 0 Z " fill="#000000" transform="translate(315.625,307)"/>
</svg>
